<svg xmlns="http://www.w3.org/2000/svg" width="404.73" height="114.103" viewBox="0 0 404.73 114.103">
  <g id="Group_194" data-name="Group 194" transform="translate(-451.269 -2499.778)">
    <g id="Group_126" data-name="Group 126" transform="translate(641.382 2502.125) rotate(-2)">
      <g id="Group_114" data-name="Group 114" transform="translate(9.763 57.487)">
        <path id="Path_275" data-name="Path 275" d="M19.009,1.019c0,.56-4.25,1.019-9.5,1.019S0,1.579,0,1.019,4.25,0,9.5,0,19.009.459,19.009,1.019Z" fill="#b6b6b6"/>
      </g>
      <g id="Group_115" data-name="Group 115" transform="translate(64.623 57.487)">
        <path id="Path_276" data-name="Path 276" d="M19.009,1.019c0,.56-4.25,1.019-9.5,1.019S0,1.579,0,1.019,4.25,0,9.5,0,19.009.459,19.009,1.019Z" fill="#b6b6b6"/>
      </g>
      <g id="Group_116" data-name="Group 116" transform="translate(1.522 23.087)">
        <path id="Path_277" data-name="Path 277" d="M17.746,35.491A17.746,17.746,0,1,1,35.491,17.746,17.766,17.766,0,0,1,17.746,35.491Zm0-34.07A16.324,16.324,0,1,0,34.07,17.746,16.342,16.342,0,0,0,17.746,1.421Z" fill="#37394e"/>
      </g>
      <g id="Group_117" data-name="Group 117" transform="translate(3.317 24.881)">
        <path id="Path_278" data-name="Path 278" d="M15.951,31.9A15.951,15.951,0,1,1,31.916,15.951,15.971,15.971,0,0,1,15.951,31.9Zm0-31.2A15.248,15.248,0,1,0,31.2,15.951,15.266,15.266,0,0,0,15.951.7Z" fill="#d6663e"/>
      </g>
      <g id="Group_118" data-name="Group 118" transform="translate(56.381 23.087)">
        <path id="Path_279" data-name="Path 279" d="M17.746,35.491A17.746,17.746,0,1,1,35.491,17.746,17.766,17.766,0,0,1,17.746,35.491Zm0-34.07A16.324,16.324,0,1,0,34.07,17.746,16.342,16.342,0,0,0,17.746,1.421Z" fill="#37394e"/>
      </g>
      <g id="Group_119" data-name="Group 119" transform="translate(58.176 24.881)">
        <path id="Path_280" data-name="Path 280" d="M15.951,31.9A15.951,15.951,0,1,1,31.9,15.951,15.971,15.971,0,0,1,15.951,31.9Zm0-31.2A15.248,15.248,0,1,0,31.2,15.951,15.266,15.266,0,0,0,15.951.7Z" fill="#d6663e"/>
      </g>
      <path id="Path_281" data-name="Path 281" d="M56.468,39.885c-4.408-4.307-6.533-11.443-6.633-11.8L47.48,18.464l-.043-.172L44.766,7.408l3.159-2.24c.2-.144,1.881-1.393,1.393-2.915C48.815.689,46.389,0,41.435,0a.948.948,0,0,0,0,1.9c5.154,0,5.973.818,6.073.933a2.093,2.093,0,0,1-.689.8L43.144,6.245a.968.968,0,0,0-.373,1.005l1.464,5.958C43.46,14.53,34.932,28.571,21.852,29L16.8,6.461a.949.949,0,1,0-1.852.416l2.024,9.031L.172,40.043c-.014.014-.014.029-.029.043L.1,40.172l-.043.086c-.014.029-.014.057-.029.086a.244.244,0,0,0-.014.1c0,.014-.014.029-.014.043V40.7c0,.029.014.057.014.086s.014.057.029.086a.2.2,0,0,1,.029.086l.043.086a.143.143,0,0,0,.057.072c.014.029.043.043.057.072s.043.043.057.057.057.043.072.072l.029.029a.109.109,0,0,0,.057.029c.014.014.029.014.057.029a.514.514,0,0,0,.158.057h0a.72.72,0,0,0,.172.029H.847l23.044,2.268h.086a.819.819,0,0,0,.187-.014h.029c.014,0,.029-.014.043-.014s.072-.014.1-.029.014,0,.029-.014.043-.014.057-.029l.086-.043c.014,0,.014-.014.029-.014l.043-.043c.029-.014.043-.043.072-.057l.029-.029h0L46.03,20.545,48,28.557c0,.014,0,.014.014.029.086.316,2.268,7.911,7.136,12.663a.935.935,0,0,0,.66.273.955.955,0,0,0,.66-1.637Zm-33.7,1.852L2.656,39.77,17.53,18.392Zm1.752-.89-2.24-9.993c5.93-.3,11.816-3.2,17.1-8.442a44.412,44.412,0,0,0,5.485-6.662l.632,2.57Z" transform="translate(18.32 0.273)" fill="#81be2f"/>
      <g id="Group_120" data-name="Group 120" transform="translate(27.071 2.951)">
        <path id="Path_282" data-name="Path 282" d="M13.331,4.759h-8a6.735,6.735,0,0,1-5.126-2.9A1.189,1.189,0,1,1,2.175.524,4.449,4.449,0,0,0,5.348,2.376h8a1.189,1.189,0,0,1,1.192,1.192,1.21,1.21,0,0,1-1.206,1.192Z" fill="#d6663e"/>
      </g>
      <path id="Path_283" data-name="Path 283" d="M4.724,6.561,6.6.416,5.24,0,3.36,6.145H3.3A2.629,2.629,0,0,0,.675,8.772a2.587,2.587,0,0,0,1.206,2.2L0,17.114l1.364.416,1.881-6.145H3.3A2.619,2.619,0,0,0,4.724,6.561Z" transform="translate(39.009 34.329)" fill="#37394e"/>
      <g id="Group_121" data-name="Group 121" transform="translate(41.737 33.711)">
        <path id="Path_284" data-name="Path 284" d="M5.556,1.665H.833A.833.833,0,1,1,.833,0H5.556a.833.833,0,1,1,0,1.665Z" fill="#d6663e"/>
      </g>
      <g id="Group_122" data-name="Group 122" transform="translate(36.496 50.796)">
        <path id="Path_285" data-name="Path 285" d="M5.556,1.665H.833A.833.833,0,1,1,.833,0H5.556a.833.833,0,1,1,0,1.665Z" fill="#d6663e"/>
      </g>
      <path id="Path_286" data-name="Path 286" d="M38.449,17.258A19.278,19.278,0,0,0,0,19.282a.478.478,0,0,0,.474.474.478.478,0,0,0,.474-.474A18.262,18.262,0,0,1,6.805,5.872L19.1,19.081h.014c.014.014.043.029.057.043l.014.014a.182.182,0,0,0,.086.014h.014c.014,0,.014,0,.029-.014s.029-.014.057-.014.029-.014.043-.029.014-.014.029-.014a.014.014,0,0,1,.014-.014c.014-.014.014-.029.029-.043s.014-.029.029-.043a.053.053,0,0,1,.014-.043v-.072L17.947,1.005c.431-.029.876-.057,1.321-.057a18.262,18.262,0,0,1,18.22,16.4.484.484,0,0,0,.531.431A.463.463,0,0,0,38.449,17.258Zm-19.469.976L7.179,5.542A18.14,18.14,0,0,1,17.487,1.048Z" transform="translate(0 21.622)" fill="#81be2f"/>
      <g id="Group_123" data-name="Group 123" transform="translate(16.899 37.746)">
        <path id="Path_287" data-name="Path 287" d="M25.413,0h0L2.627.1a2.623,2.623,0,0,0-.689,5.154c.029.029,21.909,5.212,21.909,5.212h0a5.449,5.449,0,0,0,1.536.23A5.348,5.348,0,0,0,25.413,0Zm0,9.978A4.637,4.637,0,0,1,25.4.7h0a4.637,4.637,0,0,1,.014,9.275Z" fill="#d6663e"/>
      </g>
      <g id="Group_124" data-name="Group 124" transform="translate(16.899 37.832)">
        <path id="Path_288" data-name="Path 288" d="M5.255,2.627A2.627,2.627,0,1,1,2.627,0,2.629,2.629,0,0,1,5.255,2.627Z" fill="#37394e"/>
      </g>
      <g id="Group_125" data-name="Group 125" transform="translate(52.333 0)">
        <path id="Path_289" data-name="Path 289" d="M7.667,2.383H1.192A1.192,1.192,0,0,1,1.192,0H7.667a1.192,1.192,0,0,1,0,2.383Z" fill="#d6663e"/>
      </g>
      <path id="Path_290" data-name="Path 290" d="M19.239.948a.478.478,0,0,0,.474-.474A.478.478,0,0,0,19.239,0,19.258,19.258,0,0,0,0,19.239a.478.478,0,0,0,.474.474.478.478,0,0,0,.474-.474c0-.445.029-.89.057-1.321L19.21,19.483h.014a.267.267,0,0,0,.1-.029c.014,0,.014-.014.029-.014s.043-.029.057-.043a.014.014,0,0,0,.014-.014.014.014,0,0,1,.014-.014c.014-.014.014-.029.029-.043s.014-.029.014-.043V19.2c0-.014-.014-.029-.014-.043s-.014-.029-.014-.043-.014-.029-.029-.043l-.014-.014L4.838,7.983A18.251,18.251,0,0,1,19.239.948Zm-.79,17.975L1.048,17.43a18.135,18.135,0,0,1,3.5-9.074Z" transform="translate(54.888 21.608)" fill="#81be2f"/>
    </g>
    <path id="Path_291" data-name="Path 291" d="M0,0S12.408,82.313,197.946,63.484s202.875,45.575,202.875,45.575" transform="translate(453.246 2504.302)" fill="none" stroke="#81be2f" stroke-width="4" stroke-dasharray="34 10"/>
  </g>
</svg>
