<svg xmlns="http://www.w3.org/2000/svg" width="102.289" height="102.289" viewBox="0 0 102.289 102.289">
  <path id="iconfinder_Circled_Twitter_svg_5279123" d="M51.145,0A51.145,51.145,0,1,1,0,51.145,51.169,51.169,0,0,1,51.145,0ZM42.136,78.347c22.632,0,35.007-18.754,35.007-35.007,0-.536,0-1.072-.026-1.582a25.2,25.2,0,0,0,6.149-6.379A24.969,24.969,0,0,1,76.2,37.318a12.3,12.3,0,0,0,5.409-6.812A24.919,24.919,0,0,1,73.8,33.491a12.31,12.31,0,0,0-21.28,8.42,11.278,11.278,0,0,0,.332,2.807,34.9,34.9,0,0,1-25.362-12.86,12.3,12.3,0,0,0,3.827,16.406,12.086,12.086,0,0,1-5.562-1.531v.153A12.317,12.317,0,0,0,35.63,58.955a12.271,12.271,0,0,1-3.24.434,11.734,11.734,0,0,1-2.322-.23,12.284,12.284,0,0,0,11.482,8.548,24.731,24.731,0,0,1-15.284,5.256,22.392,22.392,0,0,1-2.934-.179,34.28,34.28,0,0,0,18.8,5.562Z" fill="#747474" fill-rule="evenodd"/>
</svg>
