<svg xmlns="http://www.w3.org/2000/svg" width="236.913" height="129.171" viewBox="0 0 236.913 129.171">
  <g id="Group_72" data-name="Group 72" transform="translate(-6.477 -6.191)">
    <g id="Group_9" data-name="Group 9" transform="translate(6.477 6.191)" opacity="0.11">
      <path id="Path_90" data-name="Path 90" d="M43.4,30.86a17.541,17.541,0,0,0-4.809-3.64,11.6,11.6,0,0,0-5.167-1.2,8.731,8.731,0,0,0-6.788,2.828,10.759,10.759,0,0,0-2.567,7.522,10.572,10.572,0,0,0,2.452,7.327A8.389,8.389,0,0,0,33.1,46.434a12.231,12.231,0,0,0,5.054-1.156,25.315,25.315,0,0,0,5.61-3.686L43.2,61.21a30.112,30.112,0,0,1-5.63,1.87A26.448,26.448,0,0,1,25.2,62.847a22.489,22.489,0,0,1-5.859-2.421A26.727,26.727,0,0,1,9.734,50.343a29.241,29.241,0,0,1-3.257-14A30.891,30.891,0,0,1,8.326,25.511a26.186,26.186,0,0,1,5.385-8.8,23.737,23.737,0,0,1,8.265-5.825A25.935,25.935,0,0,1,32.14,8.91a25.149,25.149,0,0,1,5.743.661A25.7,25.7,0,0,1,43.4,11.553Z" transform="translate(-6.477 -7.054)" fill="#747474"/>
      <path id="Path_91" data-name="Path 91" d="M103.434,53.884,80.1,53.918v.571a7.637,7.637,0,0,0,.935,4.226A3.2,3.2,0,0,0,83.872,60.1a2.95,2.95,0,0,0,2-.744,4.973,4.973,0,0,0,1.347-2.161l15.227,1.127a17.306,17.306,0,0,1-6.879,9.258,21.074,21.074,0,0,1-11.955,3.253,20.534,20.534,0,0,1-7.355-1.3,18.966,18.966,0,0,1-6.142-3.8,20.13,20.13,0,0,1-4.684-6.671,20.052,20.052,0,0,1,4.68-22.586,18.471,18.471,0,0,1,6.12-3.817A20.7,20.7,0,0,1,83.6,31.369a19.271,19.271,0,0,1,16.955,9.262,18.1,18.1,0,0,1,2.208,5.112,23.967,23.967,0,0,1,.737,6.11c0,.569-.007,1-.016,1.283S103.454,53.671,103.434,53.884Zm-23.208-7.99,7.455.038a5.136,5.136,0,0,0-1-3.2A3.371,3.371,0,0,0,84,41.7a3.252,3.252,0,0,0-2.546,1.085A5.656,5.656,0,0,0,80.226,45.894Z" transform="translate(-24.666 -14.181)" fill="#747474"/>
      <path id="Path_92" data-name="Path 92" d="M188.074,64.356V41.036h-4.68V27.478h4.68V15.294h16.462V27.478h4.68V41.036h-4.68v23.32Z" transform="translate(-62.62 -9.08)" fill="#747474"/>
      <path id="Path_93" data-name="Path 93" d="M223.926,69.457V32.579h15.937v5.164a15.578,15.578,0,0,1,4.755-4.779,10.964,10.964,0,0,1,5.8-1.595c.328,0,.574.007.737.019a4.237,4.237,0,0,1,.444.055V49.357a13.829,13.829,0,0,0-2.526-1.214,6.553,6.553,0,0,0-2.1-.393,6.309,6.309,0,0,0-4.871,1.858,7.378,7.378,0,0,0-1.72,5.212V69.457Z" transform="translate(-75.483 -14.181)" fill="#747474"/>
      <path id="Path_94" data-name="Path 94" d="M291.893,69.457V63.889a18.449,18.449,0,0,1-5.14,5.25,10.9,10.9,0,0,1-5.926,1.69q-5.893,0-9.771-5.458t-3.88-14.058q0-8.991,3.781-14.467t9.871-5.478a11.247,11.247,0,0,1,5.713,1.482,15.422,15.422,0,0,1,4.764,4.588v-4.86h15.735V69.457Zm-8.982-18.585a5.918,5.918,0,0,0,1.165,3.819,3.992,3.992,0,0,0,6.146.018,5.967,5.967,0,0,0,1.148-3.837,6.115,6.115,0,0,0-1.165-3.91,3.914,3.914,0,0,0-6.129.018A6.132,6.132,0,0,0,282.911,50.872Z" transform="translate(-89.208 -14.181)" fill="#747474"/>
      <path id="Path_95" data-name="Path 95" d="M329.38,61.467V6.191h16.462V61.467Z" transform="translate(-108.948 -6.191)" fill="#747474"/>
      <path id="Path_96" data-name="Path 96" d="M159.742,34.932a10.9,10.9,0,0,0-8.581-3.563,11.129,11.129,0,0,0-5.839,1.556,15.267,15.267,0,0,0-4.725,4.736V32.579H124.658V69.457h9.473c-1.49-2.654.552-6.235.552-6.235l9.395-15.955a10.734,10.734,0,0,1,4.086,6.841,27.949,27.949,0,0,0,10.406,9.33c2.238,3.918-5.228,2.978-11.46-4.491a32.413,32.413,0,0,1-2.1,3.845c-1.522,2.368-.124,3.4.545,3.739l.341.156c3.49,1.6,12.1,6.061,16.847,12.875l.019.014-.013-.005c.051.072.1.144.154.216V44.66Q162.907,38.5,159.742,34.932Zm-8.3,12.21c-1.72,1.728-4.3,1.946-5.772.485s-1.262-4.042.454-5.77,4.3-1.946,5.767-.489S153.156,45.416,151.441,47.142Z" transform="translate(-43.981 -14.181)" fill="#747474"/>
    </g>
    <g id="Group_11" data-name="Group 11" transform="translate(57.794 121.94)" opacity="0.11">
      <g id="Group_10" data-name="Group 10">
        <path id="Path_97" data-name="Path 97" d="M84.911,178.3H81.65v-2.264h9.281V178.3h-3.3v9.653H84.911Z" transform="translate(-81.65 -175.838)" fill="#747474"/>
        <path id="Path_98" data-name="Path 98" d="M149.772,188.053c-3.565,0-5.68-2.671-5.68-6.063,0-3.574,2.33-6.242,5.877-6.242,3.71,0,5.734,2.739,5.734,6.028,0,3.927-2.383,6.277-5.913,6.277Zm.144-2.138c1.846,0,2.9-1.716,2.9-4.051,0-2.139-1.021-3.977-2.9-3.977s-2.938,1.8-2.938,4.032,1.093,4,2.92,4Z" transform="translate(-101.465 -175.748)" fill="#747474"/>
        <path id="Path_99" data-name="Path 99" d="M214.745,176.031v6.843c0,2.068.806,3.112,2.187,3.112,1.433,0,2.221-.989,2.221-3.112v-6.843h2.724v6.684c0,3.677-1.883,5.428-5.035,5.428-3.047,0-4.82-1.68-4.82-5.464v-6.648Z" transform="translate(-123.022 -175.838)" fill="#747474"/>
        <path id="Path_100" data-name="Path 100" d="M278.218,176.168a21.623,21.623,0,0,1,3.637-.266,6.1,6.1,0,0,1,3.905.955,2.971,2.971,0,0,1,1.13,2.493,3.161,3.161,0,0,1-2.133,2.916v.055a2.973,2.973,0,0,1,1.612,2.209c.376,1.361.734,2.917.968,3.377h-2.795a15.764,15.764,0,0,1-.826-2.776c-.34-1.5-.859-1.891-1.987-1.909h-.806v4.685h-2.707Zm2.707,5.109H282c1.363,0,2.169-.67,2.169-1.714,0-1.079-.752-1.645-2.006-1.645a5.483,5.483,0,0,0-1.236.088Z" transform="translate(-144.029 -175.797)" fill="#747474"/>
        <path id="Path_101" data-name="Path 101" d="M341.951,185.091a6.962,6.962,0,0,0,3.027.743c1.255,0,1.917-.513,1.917-1.291,0-.743-.574-1.167-2.025-1.663-2.006-.707-3.333-1.8-3.333-3.535,0-2.034,1.739-3.571,4.57-3.571a7.142,7.142,0,0,1,3.082.6l-.609,2.157a5.7,5.7,0,0,0-2.509-.567c-1.182,0-1.755.548-1.755,1.15,0,.76.662,1.094,2.239,1.679,2.133.78,3.118,1.875,3.118,3.555,0,2-1.541,3.695-4.856,3.695a7.958,7.958,0,0,1-3.423-.743Z" transform="translate(-164.078 -175.756)" fill="#747474"/>
      </g>
    </g>
    <g id="Group_12" data-name="Group 12" transform="translate(57.794 61.769)" opacity="0.11">
      <path id="Path_102" data-name="Path 102" d="M315.9,118.964l12.011-17.725H308.669l-6.905,14.088V89.537h-6.3V87.605a15.465,15.465,0,0,1-1.715,1.27,13.153,13.153,0,0,1-7.117,2.034c-.4,0-.781-.037-1.167-.068v47.276h16.3v-13.8l10.71,19.388h19.431Z" transform="translate(-146.329 -87.605)" fill="#747474"/>
      <path id="Path_103" data-name="Path 103" d="M233.755,143.892V107.013h15.938v5.163a15.586,15.586,0,0,1,4.755-4.78,10.973,10.973,0,0,1,5.805-1.593c.328,0,.573.006.737.02a4.261,4.261,0,0,1,.443.053V123.79a13.73,13.73,0,0,0-2.525-1.213,6.515,6.515,0,0,0-2.1-.393,6.312,6.312,0,0,0-4.869,1.857,7.384,7.384,0,0,0-1.722,5.213v14.638Z" transform="translate(-129.919 -93.38)" fill="#747474"/>
      <path id="Path_104" data-name="Path 104" d="M118.177,96.992q-5.034-4.564-15.918-4.564H81.65v52.208H98.919V131.288a14.3,14.3,0,0,1-10.637-13.614c0-7.844,6.648-14.2,14.848-14.2s14.848,6.359,14.848,14.2a13.87,13.87,0,0,1-4.663,10.316,14.076,14.076,0,0,0,5.368-3.025q4.524-4.262,4.525-13.5Q123.208,101.556,118.177,96.992Z" transform="translate(-81.65 -89.136)" fill="#747474"/>
      <path id="Path_105" data-name="Path 105" d="M118.758,123.778a10.552,10.552,0,1,0-10.542,10.081A10.319,10.319,0,0,0,118.758,123.778Z" transform="translate(-86.735 -95.885)" fill="#747474"/>
      <path id="Path_106" data-name="Path 106" d="M181.79,107.013v4.376a12.925,12.925,0,0,1,7.531,11.82,12.592,12.592,0,1,1-12.587-12.91,12.252,12.252,0,0,1,4.51.868,14.809,14.809,0,0,0-4.218-3.882,11.233,11.233,0,0,0-5.713-1.481q-6.089,0-9.868,5.478t-3.782,14.465q0,8.6,3.88,14.059t9.77,5.459a10.9,10.9,0,0,0,5.927-1.69,18.409,18.409,0,0,0,5.139-5.251v5.57h15.147V107.013Z" transform="translate(-105.772 -93.38)" fill="#747474"/>
      <path id="Path_107" data-name="Path 107" d="M151.456,122.643s1.29-14.2,11.62-20.657C164.367,101.986,146.291,103.278,151.456,122.643Z" transform="translate(-103.507 -92.169)" fill="#747474"/>
      <path id="Path_108" data-name="Path 108" d="M190.5,126.984a9.718,9.718,0,1,0-9.709,9.286A9.5,9.5,0,0,0,190.5,126.984Z" transform="translate(-110.03 -97.154)" fill="#747474"/>
    </g>
    <g id="Group_14" data-name="Group 14" transform="translate(57.794 123.057)">
      <g id="Group_13" data-name="Group 13">
        <path id="Path_109" data-name="Path 109" d="M84.911,179.932H81.65v-2.264h9.281v2.264h-3.3v9.654H84.911Z" transform="translate(-81.65 -177.473)" fill="#747474"/>
        <path id="Path_110" data-name="Path 110" d="M149.772,189.688c-3.565,0-5.68-2.668-5.68-6.064,0-3.57,2.33-6.241,5.877-6.241,3.71,0,5.734,2.741,5.734,6.029,0,3.925-2.383,6.276-5.913,6.276Zm.144-2.139c1.846,0,2.9-1.714,2.9-4.049,0-2.139-1.021-3.979-2.9-3.979s-2.938,1.8-2.938,4.032c0,2.245,1.093,4,2.92,4Z" transform="translate(-101.465 -177.383)" fill="#747474"/>
        <path id="Path_111" data-name="Path 111" d="M214.745,177.668v6.842c0,2.068.806,3.112,2.187,3.112,1.433,0,2.221-.991,2.221-3.112v-6.842h2.724v6.683c0,3.679-1.883,5.428-5.035,5.428-3.047,0-4.82-1.679-4.82-5.461v-6.649Z" transform="translate(-123.022 -177.473)" fill="#747474"/>
        <path id="Path_112" data-name="Path 112" d="M278.218,177.8a21.553,21.553,0,0,1,3.637-.266,6.118,6.118,0,0,1,3.905.953,2.975,2.975,0,0,1,1.13,2.5,3.16,3.16,0,0,1-2.133,2.916v.053a2.978,2.978,0,0,1,1.612,2.211c.376,1.361.734,2.917.968,3.377h-2.795a15.819,15.819,0,0,1-.826-2.776c-.34-1.5-.859-1.892-1.987-1.909h-.806v4.685h-2.707Zm2.707,5.11H282c1.363,0,2.169-.673,2.169-1.718,0-1.077-.752-1.642-2.006-1.642a5.481,5.481,0,0,0-1.236.088Z" transform="translate(-144.029 -177.433)" fill="#747474"/>
        <path id="Path_113" data-name="Path 113" d="M341.951,186.727a6.961,6.961,0,0,0,3.027.743c1.255,0,1.917-.513,1.917-1.29,0-.743-.574-1.167-2.025-1.663-2.006-.707-3.333-1.8-3.333-3.536,0-2.034,1.739-3.571,4.57-3.571a7.144,7.144,0,0,1,3.082.6l-.609,2.157a5.717,5.717,0,0,0-2.509-.565c-1.182,0-1.755.547-1.755,1.15,0,.761.662,1.1,2.239,1.679,2.133.778,3.118,1.876,3.118,3.553,0,2-1.541,3.7-4.856,3.7a7.958,7.958,0,0,1-3.423-.743Z" transform="translate(-164.078 -177.392)" fill="#747474"/>
      </g>
    </g>
    <g id="Group_15" data-name="Group 15" transform="translate(57.794 62.886)">
      <path id="Path_114" data-name="Path 114" d="M315.9,120.6l12.011-17.725H308.669l-6.905,14.087V91.173h-6.3V89.242a15.546,15.546,0,0,1-1.715,1.269,13.147,13.147,0,0,1-7.117,2.034c-.4,0-.781-.037-1.167-.069v47.277h16.3v-13.8l10.71,19.387h19.431Z" transform="translate(-146.329 -89.242)" fill="#747474"/>
      <path id="Path_115" data-name="Path 115" d="M233.755,145.528V108.65h15.938v5.162a15.587,15.587,0,0,1,4.755-4.78,10.979,10.979,0,0,1,5.805-1.593c.328,0,.573.007.737.02a4.09,4.09,0,0,1,.443.053v17.914a13.554,13.554,0,0,0-2.525-1.213,6.518,6.518,0,0,0-2.1-.394,6.308,6.308,0,0,0-4.869,1.858,7.382,7.382,0,0,0-1.722,5.213v14.637Z" transform="translate(-129.919 -95.017)" fill="#747474"/>
      <path id="Path_116" data-name="Path 116" d="M118.177,98.627q-5.034-4.563-15.918-4.564H81.65v52.21H98.919V132.925a14.307,14.307,0,0,1-10.637-13.616c0-7.844,6.648-14.2,14.848-14.2s14.848,6.358,14.848,14.2a13.871,13.871,0,0,1-4.663,10.317,14.06,14.06,0,0,0,5.368-3.026q4.524-4.261,4.525-13.5Q123.208,103.189,118.177,98.627Z" transform="translate(-81.65 -90.772)" fill="#747474"/>
      <path id="Path_117" data-name="Path 117" d="M118.758,125.414a10.552,10.552,0,1,0-10.542,10.08A10.319,10.319,0,0,0,118.758,125.414Z" transform="translate(-86.735 -97.521)" fill="#747474"/>
      <path id="Path_118" data-name="Path 118" d="M181.79,108.65v4.376a12.923,12.923,0,0,1,7.531,11.82,12.592,12.592,0,1,1-12.587-12.912,12.266,12.266,0,0,1,4.51.868,14.816,14.816,0,0,0-4.218-3.882,11.239,11.239,0,0,0-5.713-1.481q-6.089,0-9.868,5.478t-3.782,14.468q0,8.6,3.88,14.057t9.77,5.457a10.893,10.893,0,0,0,5.927-1.69,18.373,18.373,0,0,0,5.139-5.251v5.57h15.147V108.65Z" transform="translate(-105.772 -95.017)" fill="#747474"/>
      <path id="Path_119" data-name="Path 119" d="M151.456,124.28s1.29-14.2,11.62-20.659C164.367,103.621,146.291,104.913,151.456,124.28Z" transform="translate(-103.507 -93.805)" fill="#747474"/>
      <path id="Path_120" data-name="Path 120" d="M190.5,128.62a9.718,9.718,0,1,0-9.709,9.287A9.5,9.5,0,0,0,190.5,128.62Z" transform="translate(-110.03 -98.791)" fill="#747474"/>
    </g>
    <g id="Group_16" data-name="Group 16" transform="translate(6.477 7.308)">
      <path id="Path_121" data-name="Path 121" d="M43.4,32.5a17.527,17.527,0,0,0-4.809-3.64,11.6,11.6,0,0,0-5.167-1.2,8.731,8.731,0,0,0-6.788,2.828A10.758,10.758,0,0,0,24.069,38a10.573,10.573,0,0,0,2.452,7.328A8.389,8.389,0,0,0,33.1,48.07a12.231,12.231,0,0,0,5.054-1.156,25.34,25.34,0,0,0,5.61-3.686L43.2,62.846a30.059,30.059,0,0,1-5.63,1.87,26.033,26.033,0,0,1-5.629.622,26.319,26.319,0,0,1-6.743-.854,22.489,22.489,0,0,1-5.859-2.421A26.732,26.732,0,0,1,9.734,51.979a29.242,29.242,0,0,1-3.257-14,30.888,30.888,0,0,1,1.849-10.83,26.186,26.186,0,0,1,5.385-8.8,23.748,23.748,0,0,1,8.265-5.826A25.947,25.947,0,0,1,32.14,10.546a25.149,25.149,0,0,1,5.743.661A25.7,25.7,0,0,1,43.4,13.189Z" transform="translate(-6.477 -8.69)" fill="#747474"/>
      <path id="Path_122" data-name="Path 122" d="M103.434,55.519,80.1,55.554v.571a7.634,7.634,0,0,0,.935,4.226,3.2,3.2,0,0,0,2.842,1.383,2.953,2.953,0,0,0,2-.744,4.977,4.977,0,0,0,1.347-2.161l15.227,1.126a17.3,17.3,0,0,1-6.879,9.258,21.074,21.074,0,0,1-11.955,3.252,20.519,20.519,0,0,1-7.355-1.3,18.964,18.964,0,0,1-6.142-3.8,20.125,20.125,0,0,1-4.684-6.672,20.054,20.054,0,0,1,4.68-22.586,18.48,18.48,0,0,1,6.12-3.816A20.7,20.7,0,0,1,83.6,33.005a19.267,19.267,0,0,1,16.955,9.262,18.1,18.1,0,0,1,2.208,5.111,23.973,23.973,0,0,1,.737,6.111c0,.569-.007,1-.016,1.283S103.454,55.307,103.434,55.519ZM80.226,47.53l7.455.038a5.14,5.14,0,0,0-1-3.2A3.373,3.373,0,0,0,84,43.334a3.252,3.252,0,0,0-2.546,1.085A5.656,5.656,0,0,0,80.226,47.53Z" transform="translate(-24.666 -15.817)" fill="#747474"/>
      <path id="Path_123" data-name="Path 123" d="M188.074,65.992V42.672h-4.68V29.114h4.68V16.93h16.462V29.114h4.68V42.672h-4.68v23.32Z" transform="translate(-62.62 -10.716)" fill="#747474"/>
      <path id="Path_124" data-name="Path 124" d="M223.926,71.093V34.215h15.937v5.164a15.563,15.563,0,0,1,4.755-4.779,10.964,10.964,0,0,1,5.8-1.595c.328,0,.574.007.737.019a4.237,4.237,0,0,1,.444.055V50.992a13.868,13.868,0,0,0-2.526-1.213,6.553,6.553,0,0,0-2.1-.393,6.309,6.309,0,0,0-4.871,1.858,7.378,7.378,0,0,0-1.72,5.211V71.093Z" transform="translate(-75.483 -15.817)" fill="#747474"/>
      <path id="Path_125" data-name="Path 125" d="M291.893,71.093V65.525a18.443,18.443,0,0,1-5.14,5.25,10.9,10.9,0,0,1-5.926,1.69q-5.893,0-9.771-5.458t-3.88-14.057q0-8.992,3.781-14.467t9.871-5.478a11.24,11.24,0,0,1,5.713,1.482,15.427,15.427,0,0,1,4.764,4.587V34.215h15.735V71.093Zm-8.982-18.585a5.917,5.917,0,0,0,1.165,3.819,3.992,3.992,0,0,0,6.146.017,5.964,5.964,0,0,0,1.148-3.836A6.114,6.114,0,0,0,290.2,48.6a3.913,3.913,0,0,0-6.129.018A6.131,6.131,0,0,0,282.911,52.508Z" transform="translate(-89.208 -15.817)" fill="#747474"/>
      <path id="Path_126" data-name="Path 126" d="M329.38,63.1V7.827h16.462V63.1Z" transform="translate(-108.948 -7.827)" fill="#747474"/>
      <path id="Path_127" data-name="Path 127" d="M159.742,36.568a10.9,10.9,0,0,0-8.581-3.563,11.129,11.129,0,0,0-5.839,1.556A15.266,15.266,0,0,0,140.6,39.3V34.215H124.658V71.093h9.473c-1.49-2.653.552-6.235.552-6.235L144.078,48.9a10.733,10.733,0,0,1,4.086,6.84,27.943,27.943,0,0,0,10.406,9.33c2.238,3.918-5.228,2.978-11.46-4.491a32.363,32.363,0,0,1-2.1,3.846c-1.522,2.368-.124,3.4.545,3.739l.341.156c3.49,1.6,12.1,6.061,16.847,12.875l.019.014-.013-.005c.051.072.1.144.154.216V46.3Q162.907,40.132,159.742,36.568Zm-8.3,12.209c-1.72,1.728-4.3,1.947-5.772.485s-1.262-4.043.454-5.77,4.3-1.946,5.767-.489S153.156,47.052,151.441,48.778Z" transform="translate(-43.981 -15.817)" fill="#747474"/>
    </g>
  </g>
</svg>
