<svg xmlns="http://www.w3.org/2000/svg" xmlns:xlink="http://www.w3.org/1999/xlink" width="182" height="182" viewBox="0 0 182 182">
  <defs>
    <linearGradient id="linear-gradient" x1="0.5" y1="0.029" x2="0.5" y2="4.179" gradientUnits="objectBoundingBox">
      <stop offset="0.006" stop-color="#74b71b"/>
      <stop offset="1" stop-color="#d0e9a5"/>
    </linearGradient>
  </defs>
  <g id="Group_193" data-name="Group 193" transform="translate(-1164 -2200)">
    <g id="Ellipse_5" data-name="Ellipse 5" transform="translate(1164 2200)" fill="#fff" stroke="#81be2f" stroke-width="2">
      <circle cx="91" cy="91" r="91" stroke="none"/>
      <circle cx="91" cy="91" r="90" fill="none"/>
    </g>
    <g id="Group_42" data-name="Group 42" transform="translate(1195 2260)">
      <g id="Group_34" data-name="Group 34" opacity="0.11">
        <path id="Path_128" data-name="Path 128" d="M24,19.328A8.325,8.325,0,0,0,21.719,17.6a5.506,5.506,0,0,0-2.452-.57,4.144,4.144,0,0,0-3.222,1.342,5.107,5.107,0,0,0-1.218,3.57,5.018,5.018,0,0,0,1.164,3.477,3.981,3.981,0,0,0,3.12,1.3,5.8,5.8,0,0,0,2.4-.549,12.015,12.015,0,0,0,2.663-1.749l-.264,9.311a14.292,14.292,0,0,1-2.672.888,12.553,12.553,0,0,1-5.872-.11,10.673,10.673,0,0,1-2.781-1.149,12.685,12.685,0,0,1-4.56-4.785A13.878,13.878,0,0,1,6.477,21.93a14.661,14.661,0,0,1,.878-5.141A12.428,12.428,0,0,1,9.91,12.613a11.266,11.266,0,0,1,3.923-2.765,12.309,12.309,0,0,1,4.824-.938,11.936,11.936,0,0,1,2.725.314A12.2,12.2,0,0,1,24,10.165Z" transform="translate(-6.477 -8.029)" fill="#015027"/>
        <path id="Path_129" data-name="Path 129" d="M82.608,42.055l-11.077.016v.271a3.625,3.625,0,0,0,.444,2.006A1.517,1.517,0,0,0,73.324,45a1.4,1.4,0,0,0,.95-.353,2.36,2.36,0,0,0,.639-1.026l7.227.535a8.213,8.213,0,0,1-3.265,4.394A10,10,0,0,1,73.2,50.1a9.746,9.746,0,0,1-3.491-.618,9,9,0,0,1-2.915-1.8,9.554,9.554,0,0,1-2.223-3.166,9.517,9.517,0,0,1,2.221-10.72,8.766,8.766,0,0,1,2.9-1.811,9.826,9.826,0,0,1,3.5-.61,9.146,9.146,0,0,1,8.047,4.4,8.589,8.589,0,0,1,1.048,2.426,11.376,11.376,0,0,1,.35,2.9c0,.27,0,.473-.008.609S82.618,41.954,82.608,42.055ZM71.593,38.263l3.538.018a2.438,2.438,0,0,0-.476-1.519,1.6,1.6,0,0,0-1.27-.49,1.544,1.544,0,0,0-1.208.515A2.684,2.684,0,0,0,71.593,38.263Z" transform="translate(-43.847 -23.211)" fill="#015027"/>
        <path id="Path_130" data-name="Path 130" d="M185.615,38.579V27.511h-2.221V21.077h2.221V15.294h7.813v5.783h2.221v6.435h-2.221V38.579Z" transform="translate(-122.102 -12.345)" fill="#015027"/>
        <path id="Path_131" data-name="Path 131" d="M223.926,49.446v-17.5h7.564v2.451a7.394,7.394,0,0,1,2.257-2.268,5.2,5.2,0,0,1,2.755-.757c.156,0,.272,0,.35.009a2.01,2.01,0,0,1,.211.026v8.5a6.565,6.565,0,0,0-1.2-.576,3.11,3.11,0,0,0-1-.186,2.994,2.994,0,0,0-2.312.882,3.5,3.5,0,0,0-.816,2.474v6.947Z" transform="translate(-148.549 -23.211)" fill="#015027"/>
        <path id="Path_132" data-name="Path 132" d="M278.907,49.446V46.8a8.755,8.755,0,0,1-2.439,2.492,5.172,5.172,0,0,1-2.813.8,5.5,5.5,0,0,1-4.637-2.59,11.247,11.247,0,0,1-1.842-6.672,11.863,11.863,0,0,1,1.794-6.866,5.465,5.465,0,0,1,4.685-2.6,5.338,5.338,0,0,1,2.712.7,7.319,7.319,0,0,1,2.261,2.178V31.943H286.1v17.5Zm-4.263-8.821a2.809,2.809,0,0,0,.553,1.812,1.895,1.895,0,0,0,2.917.008,2.832,2.832,0,0,0,.545-1.821,2.9,2.9,0,0,0-.553-1.856,1.858,1.858,0,0,0-2.909.009A2.911,2.911,0,0,0,274.644,40.625Z" transform="translate(-175.77 -23.211)" fill="#015027"/>
        <path id="Path_133" data-name="Path 133" d="M329.38,32.426V6.191h7.813V32.426Z" transform="translate(-217.82 -6.191)" fill="#015027"/>
        <path id="Path_134" data-name="Path 134" d="M141.309,33.06a5.173,5.173,0,0,0-4.073-1.691,5.282,5.282,0,0,0-2.771.739,7.246,7.246,0,0,0-2.242,2.248V31.943h-7.565v17.5h4.5c-.707-1.259.262-2.959.262-2.959l4.459-7.572a5.1,5.1,0,0,1,1.939,3.247,13.265,13.265,0,0,0,4.939,4.428c1.062,1.859-2.481,1.413-5.439-2.132a15.383,15.383,0,0,1-1,1.825c-.723,1.124-.059,1.615.259,1.775l.162.074c1.656.761,5.742,2.876,8,6.111l.009.007-.006,0c.024.034.049.068.073.1V37.677A6.7,6.7,0,0,0,141.309,33.06Zm-3.94,5.8a1.8,1.8,0,1,1,.213-2.74A1.957,1.957,0,0,1,137.369,38.855Z" transform="translate(-83.549 -23.211)" fill="#015027"/>
      </g>
      <g id="Group_36" data-name="Group 36" transform="translate(31.296 54.936)" opacity="0.11">
        <g id="Group_35" data-name="Group 35">
          <path id="Path_135" data-name="Path 135" d="M83.2,177.106H81.65v-1.075h4.4v1.075H84.49v4.581H83.2Z" transform="translate(-81.65 -175.939)" fill="#015027"/>
          <path id="Path_136" data-name="Path 136" d="M146.788,181.588a2.657,2.657,0,0,1-2.7-2.878,2.758,2.758,0,0,1,2.789-2.962,2.651,2.651,0,0,1,2.722,2.861,2.7,2.7,0,0,1-2.806,2.979Zm.068-1.015c.876,0,1.378-.815,1.378-1.923,0-1.015-.485-1.888-1.378-1.888s-1.395.855-1.395,1.914.519,1.9,1.386,1.9Z" transform="translate(-123.861 -175.748)" fill="#015027"/>
          <path id="Path_137" data-name="Path 137" d="M213.314,176.031v3.248c0,.981.383,1.477,1.038,1.477.68,0,1.054-.469,1.054-1.477v-3.248H216.7V179.2c0,1.745-.894,2.576-2.39,2.576-1.446,0-2.288-.8-2.288-2.593v-3.155Z" transform="translate(-169.782 -175.939)" fill="#015027"/>
          <path id="Path_138" data-name="Path 138" d="M278.218,176.028a10.266,10.266,0,0,1,1.726-.126,2.9,2.9,0,0,1,1.854.453,1.41,1.41,0,0,1,.536,1.183,1.5,1.5,0,0,1-1.012,1.384v.026a1.411,1.411,0,0,1,.765,1.048c.179.646.349,1.384.459,1.6H281.22a7.483,7.483,0,0,1-.392-1.317c-.161-.714-.408-.9-.943-.906H279.5V181.6h-1.285Zm1.285,2.425h.509c.647,0,1.029-.318,1.029-.814,0-.512-.357-.781-.952-.781a2.6,2.6,0,0,0-.586.042Z" transform="translate(-214.53 -175.852)" fill="#015027"/>
          <path id="Path_139" data-name="Path 139" d="M341.659,180.2a3.3,3.3,0,0,0,1.437.353c.6,0,.91-.244.91-.613,0-.353-.272-.554-.961-.789-.952-.335-1.582-.855-1.582-1.678,0-.965.825-1.695,2.169-1.695a3.389,3.389,0,0,1,1.463.285l-.289,1.024a2.7,2.7,0,0,0-1.191-.269c-.561,0-.833.26-.833.546,0,.361.314.519,1.063.8,1.012.37,1.48.89,1.48,1.687,0,.949-.731,1.753-2.3,1.753a3.777,3.777,0,0,1-1.625-.352Z" transform="translate(-257.238 -175.765)" fill="#015027"/>
        </g>
      </g>
      <g id="Group_37" data-name="Group 37" transform="translate(31.296 26.378)" opacity="0.11">
        <path id="Path_140" data-name="Path 140" d="M299.909,102.488l5.7-8.413h-9.132l-3.277,6.686V88.522h-2.991v-.917a7.342,7.342,0,0,1-.814.6,6.242,6.242,0,0,1-3.378.966c-.188,0-.371-.017-.554-.032v22.438H293.2v-6.551l5.083,9.2h9.222Z" transform="translate(-219.429 -87.605)" fill="#015027"/>
        <path id="Path_141" data-name="Path 141" d="M233.755,123.88v-17.5h7.564v2.45a7.4,7.4,0,0,1,2.257-2.269,5.208,5.208,0,0,1,2.755-.756c.156,0,.272,0,.35.009a2.023,2.023,0,0,1,.21.025v8.5a6.517,6.517,0,0,0-1.2-.576,3.093,3.093,0,0,0-1-.187,3,3,0,0,0-2.311.881,3.5,3.5,0,0,0-.817,2.474v6.947Z" transform="translate(-184.473 -99.907)" fill="#015027"/>
        <path id="Path_142" data-name="Path 142" d="M98.986,94.594q-2.389-2.166-7.555-2.166H81.65v24.779h8.2v-6.335A6.789,6.789,0,0,1,84.8,104.41a7.054,7.054,0,0,1,14.094,0,6.583,6.583,0,0,1-2.213,4.9,6.681,6.681,0,0,0,2.548-1.436q2.147-2.023,2.148-6.406Q101.374,96.76,98.986,94.594Z" transform="translate(-81.65 -90.865)" fill="#015027"/>
        <path id="Path_143" data-name="Path 143" d="M107.681,118.482a5.008,5.008,0,1,0-5,4.784A4.9,4.9,0,0,0,107.681,118.482Z" transform="translate(-92.483 -105.243)" fill="#015027"/>
        <path id="Path_144" data-name="Path 144" d="M169.113,106.377v2.077a6.134,6.134,0,0,1,3.574,5.61,5.976,5.976,0,1,1-5.974-6.127,5.815,5.815,0,0,1,2.141.412,7.028,7.028,0,0,0-2-1.843,5.331,5.331,0,0,0-2.712-.7,5.462,5.462,0,0,0-4.684,2.6,11.856,11.856,0,0,0-1.795,6.865,11.248,11.248,0,0,0,1.842,6.672,5.5,5.5,0,0,0,4.637,2.591,5.175,5.175,0,0,0,2.813-.8,8.737,8.737,0,0,0,2.439-2.492v2.644h7.189v-17.5Z" transform="translate(-133.034 -99.907)" fill="#015027"/>
        <path id="Path_145" data-name="Path 145" d="M150.967,111.79s.612-6.741,5.515-9.8C157.095,101.986,148.516,102.6,150.967,111.79Z" transform="translate(-128.21 -97.327)" fill="#015027"/>
        <path id="Path_146" data-name="Path 146" d="M180.3,122.1a4.612,4.612,0,1,0-4.608,4.407A4.511,4.511,0,0,0,180.3,122.1Z" transform="translate(-142.105 -107.947)" fill="#015027"/>
      </g>
      <g id="Group_39" data-name="Group 39" transform="translate(31.296 55.466)">
        <g id="Group_38" data-name="Group 38">
          <path id="Path_147" data-name="Path 147" d="M83.2,178.742H81.65v-1.074h4.4v1.074H84.49v4.582H83.2Z" transform="translate(-81.65 -177.576)" fill="#015027"/>
          <path id="Path_148" data-name="Path 148" d="M146.788,183.223a2.656,2.656,0,0,1-2.7-2.878,2.759,2.759,0,0,1,2.789-2.962,2.651,2.651,0,0,1,2.722,2.862,2.7,2.7,0,0,1-2.806,2.979Zm.068-1.015c.876,0,1.378-.814,1.378-1.922,0-1.015-.485-1.888-1.378-1.888s-1.395.856-1.395,1.914.519,1.9,1.386,1.9Z" transform="translate(-123.861 -177.383)" fill="#015027"/>
          <path id="Path_149" data-name="Path 149" d="M213.314,177.668v3.247c0,.982.383,1.477,1.038,1.477.68,0,1.054-.47,1.054-1.477v-3.247H216.7v3.172c0,1.746-.894,2.576-2.39,2.576-1.446,0-2.288-.8-2.288-2.592v-3.156Z" transform="translate(-169.782 -177.576)" fill="#015027"/>
          <path id="Path_150" data-name="Path 150" d="M278.218,177.665a10.229,10.229,0,0,1,1.726-.126,2.9,2.9,0,0,1,1.854.452,1.412,1.412,0,0,1,.536,1.184,1.5,1.5,0,0,1-1.012,1.384v.025a1.413,1.413,0,0,1,.765,1.049c.179.646.349,1.384.459,1.6H281.22a7.51,7.51,0,0,1-.392-1.318c-.161-.714-.408-.9-.943-.906H279.5v2.224h-1.285Zm1.285,2.425h.509c.647,0,1.029-.319,1.029-.815,0-.511-.357-.78-.952-.78a2.6,2.6,0,0,0-.586.042Z" transform="translate(-214.53 -177.488)" fill="#015027"/>
          <path id="Path_151" data-name="Path 151" d="M341.659,181.832a3.3,3.3,0,0,0,1.437.353c.6,0,.91-.244.91-.612,0-.353-.272-.554-.961-.789-.952-.335-1.582-.855-1.582-1.678,0-.965.825-1.695,2.169-1.695a3.39,3.39,0,0,1,1.463.285l-.289,1.024a2.713,2.713,0,0,0-1.191-.268c-.561,0-.833.26-.833.546,0,.361.314.52,1.063.8,1.012.369,1.48.89,1.48,1.686,0,.948-.731,1.754-2.3,1.754a3.776,3.776,0,0,1-1.625-.353Z" transform="translate(-257.238 -177.401)" fill="#015027"/>
        </g>
      </g>
      <g id="Group_40" data-name="Group 40" transform="translate(31.296 26.908)">
        <path id="Path_152" data-name="Path 152" d="M299.909,104.125l5.7-8.413h-9.132L293.2,102.4V90.159h-2.991v-.917a7.379,7.379,0,0,1-.814.6,6.24,6.24,0,0,1-3.378.966c-.188,0-.371-.017-.554-.033v22.438H293.2v-6.551l5.083,9.2h9.222Z" transform="translate(-219.429 -89.242)" fill="#81be2f"/>
        <path id="Path_153" data-name="Path 153" d="M233.755,125.516v-17.5h7.564v2.45a7.4,7.4,0,0,1,2.257-2.269,5.211,5.211,0,0,1,2.755-.756c.156,0,.272,0,.35.01a1.942,1.942,0,0,1,.21.025v8.5a6.435,6.435,0,0,0-1.2-.576,3.094,3.094,0,0,0-1-.187,2.994,2.994,0,0,0-2.311.882,3.5,3.5,0,0,0-.817,2.474v6.947Z" transform="translate(-184.473 -101.543)" fill="#81be2f"/>
        <path id="Path_154" data-name="Path 154" d="M98.986,96.229q-2.389-2.166-7.555-2.166H81.65v24.779h8.2v-6.335a6.79,6.79,0,0,1-5.049-6.462,7.054,7.054,0,0,1,14.094,0,6.583,6.583,0,0,1-2.213,4.9,6.673,6.673,0,0,0,2.548-1.436q2.147-2.022,2.148-6.405Q101.374,98.395,98.986,96.229Z" transform="translate(-81.65 -92.501)" fill="#81be2f"/>
        <path id="Path_155" data-name="Path 155" d="M107.681,120.117a5.008,5.008,0,1,0-5,4.784A4.9,4.9,0,0,0,107.681,120.117Z" transform="translate(-92.483 -106.879)" fill="#81be2f"/>
        <path id="Path_156" data-name="Path 156" d="M169.113,108.014v2.077a6.133,6.133,0,0,1,3.574,5.61,5.976,5.976,0,1,1-5.974-6.128,5.822,5.822,0,0,1,2.141.412,7.031,7.031,0,0,0-2-1.842,5.334,5.334,0,0,0-2.712-.7,5.462,5.462,0,0,0-4.684,2.6,11.858,11.858,0,0,0-1.795,6.866,11.247,11.247,0,0,0,1.842,6.672,5.5,5.5,0,0,0,4.637,2.59,5.17,5.17,0,0,0,2.813-.8,8.72,8.72,0,0,0,2.439-2.492v2.644h7.189v-17.5Z" transform="translate(-133.034 -101.543)" fill="#81be2f"/>
        <path id="Path_157" data-name="Path 157" d="M150.967,113.426s.612-6.741,5.515-9.8C157.095,103.621,148.516,104.234,150.967,113.426Z" transform="translate(-128.21 -98.962)" fill="#81be2f"/>
        <path id="Path_158" data-name="Path 158" d="M180.3,123.741a4.612,4.612,0,1,0-4.608,4.408A4.511,4.511,0,0,0,180.3,123.741Z" transform="translate(-142.105 -109.584)" fill="url(#linear-gradient)"/>
      </g>
      <g id="Group_41" data-name="Group 41" transform="translate(0 0.53)">
        <path id="Path_159" data-name="Path 159" d="M24,20.964a8.319,8.319,0,0,0-2.283-1.728,5.507,5.507,0,0,0-2.452-.571,4.144,4.144,0,0,0-3.222,1.342,5.106,5.106,0,0,0-1.218,3.57,5.018,5.018,0,0,0,1.164,3.478,3.981,3.981,0,0,0,3.12,1.3,5.8,5.8,0,0,0,2.4-.549,12.027,12.027,0,0,0,2.663-1.749l-.264,9.311a14.266,14.266,0,0,1-2.672.887,12.356,12.356,0,0,1-2.671.3,12.491,12.491,0,0,1-3.2-.405A10.673,10.673,0,0,1,12.582,35a12.687,12.687,0,0,1-4.56-4.785,13.879,13.879,0,0,1-1.546-6.646,14.66,14.66,0,0,1,.878-5.14A12.428,12.428,0,0,1,9.91,14.249a11.271,11.271,0,0,1,3.923-2.765,12.315,12.315,0,0,1,4.824-.938,11.936,11.936,0,0,1,2.725.314A12.2,12.2,0,0,1,24,11.8Z" transform="translate(-6.477 -9.665)" fill="#015027"/>
        <path id="Path_160" data-name="Path 160" d="M82.608,43.69l-11.077.017v.271a3.623,3.623,0,0,0,.444,2.006,1.516,1.516,0,0,0,1.349.656,1.4,1.4,0,0,0,.95-.353,2.362,2.362,0,0,0,.639-1.026l7.227.535a8.213,8.213,0,0,1-3.265,4.394A10,10,0,0,1,73.2,51.733a9.739,9.739,0,0,1-3.491-.618,9,9,0,0,1-2.915-1.8,9.552,9.552,0,0,1-2.223-3.166,9.518,9.518,0,0,1,2.221-10.72,8.771,8.771,0,0,1,2.9-1.811,9.826,9.826,0,0,1,3.5-.61,9.144,9.144,0,0,1,8.047,4.4,8.591,8.591,0,0,1,1.048,2.426,11.378,11.378,0,0,1,.35,2.9c0,.27,0,.473-.008.609S82.618,43.59,82.608,43.69ZM71.593,39.9l3.538.018a2.44,2.44,0,0,0-.476-1.52,1.6,1.6,0,0,0-1.27-.49,1.544,1.544,0,0,0-1.208.515A2.684,2.684,0,0,0,71.593,39.9Z" transform="translate(-43.847 -24.847)" fill="#015027"/>
        <path id="Path_161" data-name="Path 161" d="M185.615,40.215V29.147h-2.221V22.713h2.221V16.93h7.813v5.783h2.221v6.435h-2.221V40.215Z" transform="translate(-122.102 -13.981)" fill="#015027"/>
        <path id="Path_162" data-name="Path 162" d="M223.926,51.082v-17.5h7.564V36.03a7.387,7.387,0,0,1,2.257-2.268,5.2,5.2,0,0,1,2.755-.757c.156,0,.272,0,.35.009a2.013,2.013,0,0,1,.211.026v8.5a6.583,6.583,0,0,0-1.2-.576,3.11,3.11,0,0,0-1-.186,2.994,2.994,0,0,0-2.312.882,3.5,3.5,0,0,0-.816,2.473v6.947Z" transform="translate(-148.549 -24.847)" fill="#015027"/>
        <path id="Path_163" data-name="Path 163" d="M278.907,51.082V48.439a8.753,8.753,0,0,1-2.439,2.492,5.175,5.175,0,0,1-2.813.8,5.5,5.5,0,0,1-4.637-2.59,11.246,11.246,0,0,1-1.842-6.672A11.862,11.862,0,0,1,268.97,35.6a5.465,5.465,0,0,1,4.685-2.6,5.335,5.335,0,0,1,2.712.7,7.322,7.322,0,0,1,2.261,2.177V33.579H286.1v17.5Zm-4.263-8.821a2.809,2.809,0,0,0,.553,1.812,1.894,1.894,0,0,0,2.917.008,2.83,2.83,0,0,0,.545-1.821,2.9,2.9,0,0,0-.553-1.856,1.857,1.857,0,0,0-2.909.009A2.91,2.91,0,0,0,274.644,42.261Z" transform="translate(-175.77 -24.847)" fill="#015027"/>
        <path id="Path_164" data-name="Path 164" d="M329.38,34.062V7.827h7.813V34.062Z" transform="translate(-217.82 -7.827)" fill="#015027"/>
        <path id="Path_165" data-name="Path 165" d="M141.309,34.7a5.173,5.173,0,0,0-4.073-1.691,5.282,5.282,0,0,0-2.771.739,7.246,7.246,0,0,0-2.242,2.248V33.579h-7.565v17.5h4.5c-.707-1.259.262-2.959.262-2.959l4.459-7.572a5.094,5.094,0,0,1,1.939,3.246,13.262,13.262,0,0,0,4.939,4.428c1.062,1.86-2.481,1.414-5.439-2.132a15.36,15.36,0,0,1-1,1.825c-.723,1.124-.059,1.615.259,1.775l.162.074c1.656.761,5.742,2.876,8,6.111l.009.007-.006,0c.024.034.049.068.073.1V39.313A6.7,6.7,0,0,0,141.309,34.7Zm-3.94,5.795a1.8,1.8,0,1,1,.213-2.74A1.956,1.956,0,0,1,137.369,40.491Z" transform="translate(-83.549 -24.847)" fill="#015027"/>
      </g>
    </g>
  </g>
</svg>
