<svg xmlns="http://www.w3.org/2000/svg" width="102.289" height="102.289" viewBox="0 0 102.289 102.289">
  <path id="iconfinder_Circled_Instagram_svg_5279112" d="M51.145,0A51.145,51.145,0,1,1,0,51.145,51.169,51.169,0,0,1,51.145,0Zm0,19.179c-8.681,0-9.77.037-13.179.192a23.465,23.465,0,0,0-7.759,1.486,16.346,16.346,0,0,0-9.349,9.349,23.468,23.468,0,0,0-1.486,7.759c-.155,3.41-.192,4.5-.192,13.179s.037,9.77.192,13.179a23.468,23.468,0,0,0,1.486,7.759,16.346,16.346,0,0,0,9.349,9.349,23.471,23.471,0,0,0,7.759,1.486c3.41.156,4.5.192,13.179.192s9.77-.037,13.179-.192a23.468,23.468,0,0,0,7.759-1.486,16.345,16.345,0,0,0,9.349-9.349,23.468,23.468,0,0,0,1.486-7.759c.156-3.41.192-4.5.192-13.179s-.037-9.77-.192-13.179a23.468,23.468,0,0,0-1.486-7.759,16.346,16.346,0,0,0-9.349-9.349,23.463,23.463,0,0,0-7.759-1.486C60.914,19.216,59.826,19.179,51.145,19.179Zm0,5.76c8.535,0,9.546.033,12.917.186A17.688,17.688,0,0,1,70,26.226a10.586,10.586,0,0,1,6.067,6.067,17.682,17.682,0,0,1,1.1,5.935c.154,3.371.186,4.382.186,12.917s-.033,9.546-.186,12.917A17.682,17.682,0,0,1,76.063,70,10.586,10.586,0,0,1,70,76.063a17.683,17.683,0,0,1-5.935,1.1c-3.37.154-4.381.186-12.917.186s-9.546-.033-12.917-.186a17.683,17.683,0,0,1-5.935-1.1A10.585,10.585,0,0,1,26.226,70a17.686,17.686,0,0,1-1.1-5.935c-.154-3.371-.186-4.382-.186-12.917s.032-9.546.186-12.917a17.686,17.686,0,0,1,1.1-5.935,10.585,10.585,0,0,1,6.067-6.067,17.688,17.688,0,0,1,5.935-1.1C41.6,24.971,42.609,24.939,51.145,24.939Zm0,9.791A16.415,16.415,0,1,0,67.559,51.145,16.415,16.415,0,0,0,51.145,34.73Zm0,27.07A10.655,10.655,0,1,1,61.8,51.145,10.655,10.655,0,0,1,51.145,61.8Zm20.9-27.718a3.836,3.836,0,1,1-3.836-3.836A3.836,3.836,0,0,1,72.044,34.081Z" fill="#747474" fill-rule="evenodd"/>
</svg>
