<svg xmlns="http://www.w3.org/2000/svg" width="102.289" height="102.289" viewBox="0 0 102.289 102.289">
  <path id="iconfinder_Circled_Facebook_svg_5279111" d="M50.949,102.289h0Zm.361,0h0Zm-.517,0h0Zm.682,0h0Zm-.833,0h0Zm1,0h0Zm.165,0h0Zm-1.354,0h0Zm1.519,0h0Zm-1.679,0h0Zm1.844,0h0Zm-1.995,0h0Zm-.187,0h0Zm2.346,0h0Zm-2.511,0,.062,0h-.062Zm2.675,0h-.025l.062,0Zm.164,0h-.04l.063,0h-.023Zm-2.99,0,.063,0h-.063Zm-.144,0h0Zm3.3,0h0Zm.164-.005h-.022l.069,0Zm-3.67,0,.069,0h-.022Zm-.15-.006.072,0h-.072Zm3.984,0h-.04l.072,0Zm-4.131-.007.071,0-.055,0Zm4.294,0-.055,0,.071,0Zm-4.5-.01.076,0h-.019Zm4.664,0h-.019l.076,0-.057,0Zm-4.812-.01.079,0-.037,0Zm4.975,0-.037,0,.079,0Zm-5.12-.009.079,0-.056,0Zm5.284,0-.056,0,.079,0Zm.163-.009-.072,0,.064,0,.076,0Zm-5.579,0,.064,0-.072,0-.067,0Zm5.742-.01-.032,0,.081,0Zm-5.962,0,.081,0-.032,0Zm-.144-.009.081,0-.051,0Zm6.27,0-.051,0,.081,0-.03,0Zm-6.407-.011.073,0-.068,0-.068,0Zm6.57,0-.068,0,.073,0,.063,0-.068,0Zm.163-.011-.024,0,.077-.005-.053,0Zm-6.943,0,.077.005-.024,0Zm-.144-.01.076.005-.042,0-.034,0Zm7.25,0-.042,0,.076-.005Zm-7.394-.013.07,0-.054,0h-.016Zm7.556,0-.054,0,.07,0h-.016Zm-7.749-.016.061,0h-.015Zm7.912,0h-.015l.061,0Zm.162-.013-.029,0,.062,0Zm-8.223,0,.062,0-.029,0-.033,0Zm-.145-.012.053,0-.037,0Zm8.53,0-.037,0,.053,0Zm-8.689-.015h0Zm8.851,0h0Zm.162-.014h-.014l.036,0-.022,0Zm-9.183,0,.036,0h-.014Zm-.15-.014.027,0-.017,0Zm9.494,0-.017,0,.027,0Zm-12.733-.4a51.145,51.145,0,1,1,15.983,0V65.929H71.053l2.268-14.784H59.136V41.551c0-4.045,1.981-7.987,8.335-7.987H73.92V20.977a78.648,78.648,0,0,0-11.449-1c-11.683,0-19.318,7.08-19.318,19.9V51.145H30.167V65.929H43.153Z" fill="#747474" fill-rule="evenodd"/>
</svg>
