<svg xmlns="http://www.w3.org/2000/svg" xmlns:xlink="http://www.w3.org/1999/xlink" width="376" height="196" viewBox="0 0 376 196">
  <defs>
    <clipPath id="clip-path">
      <rect id="Rectangle_58" data-name="Rectangle 58" width="376" height="196" fill="#fff" stroke="#707070" stroke-width="1"/>
    </clipPath>
    <clipPath id="clip-path-2">
      <rect id="Rectangle_57" data-name="Rectangle 57" width="355" height="355" transform="translate(-0.091 0.156)" fill="#747474"/>
    </clipPath>
  </defs>
  <g id="Mask_Group_5" data-name="Mask Group 5" clip-path="url(#clip-path)">
    <g id="Dots" transform="translate(11.091 -150.156)" opacity="0.318">
      <g id="Group_135" data-name="Group 135" transform="translate(0 0)">
        <g id="Group_134" data-name="Group 134" transform="translate(0 0)" clip-path="url(#clip-path-2)">
          <path id="Path_296" data-name="Path 296" d="M8.8,3.2a1.629,1.629,0,0,0,1.6-1.6,1.6,1.6,0,0,0-3.2,0A1.629,1.629,0,0,0,8.8,3.2Z" transform="translate(-21.23 -18.713)" fill="#747474"/>
          <path id="Path_297" data-name="Path 297" d="M23.2,3.2a1.629,1.629,0,0,0,1.6-1.6,1.6,1.6,0,1,0-3.2,0A1.629,1.629,0,0,0,23.2,3.2Z" transform="translate(-17.91 -18.713)" fill="#747474"/>
          <path id="Path_298" data-name="Path 298" d="M37.6,3.2a1.629,1.629,0,0,0,1.6-1.6,1.6,1.6,0,0,0-3.2,0A1.629,1.629,0,0,0,37.6,3.2Z" transform="translate(-14.591 -18.713)" fill="#747474"/>
          <circle id="Ellipse_11" data-name="Ellipse 11" cx="1.6" cy="1.6" r="1.6" transform="translate(39.128 -18.713)" fill="#747474"/>
          <path id="Path_299" data-name="Path 299" d="M66.4,3.2A1.629,1.629,0,0,0,68,1.6a1.6,1.6,0,0,0-3.2,0A1.629,1.629,0,0,0,66.4,3.2Z" transform="translate(-7.952 -18.713)" fill="#747474"/>
          <path id="Path_300" data-name="Path 300" d="M80.8,3.2a1.629,1.629,0,0,0,1.6-1.6,1.6,1.6,0,0,0-3.2,0A1.629,1.629,0,0,0,80.8,3.2Z" transform="translate(-4.633 -18.713)" fill="#747474"/>
          <path id="Path_301" data-name="Path 301" d="M95.2,3.2a1.629,1.629,0,0,0,1.6-1.6,1.6,1.6,0,1,0-3.2,0A1.629,1.629,0,0,0,95.2,3.2Z" transform="translate(-1.313 -18.713)" fill="#747474"/>
          <path id="Path_302" data-name="Path 302" d="M109.6,3.2a1.629,1.629,0,0,0,1.6-1.6,1.6,1.6,0,0,0-3.2,0A1.629,1.629,0,0,0,109.6,3.2Z" transform="translate(2.006 -18.713)" fill="#747474"/>
          <circle id="Ellipse_12" data-name="Ellipse 12" cx="1.6" cy="1.6" r="1.6" transform="translate(127.726 -18.713)" fill="#747474"/>
          <path id="Path_303" data-name="Path 303" d="M138.4,3.2A1.629,1.629,0,0,0,140,1.6a1.6,1.6,0,0,0-3.2,0A1.629,1.629,0,0,0,138.4,3.2Z" transform="translate(8.645 -18.713)" fill="#747474"/>
          <path id="Path_304" data-name="Path 304" d="M152.8,3.2a1.629,1.629,0,0,0,1.6-1.6,1.6,1.6,0,0,0-3.2,0A1.629,1.629,0,0,0,152.8,3.2Z" transform="translate(11.964 -18.713)" fill="#747474"/>
          <path id="Path_305" data-name="Path 305" d="M167.2,3.2a1.629,1.629,0,0,0,1.6-1.6,1.6,1.6,0,0,0-3.2,0A1.629,1.629,0,0,0,167.2,3.2Z" transform="translate(15.284 -18.713)" fill="#747474"/>
          <path id="Path_306" data-name="Path 306" d="M181.6,3.2a1.629,1.629,0,0,0,1.6-1.6,1.6,1.6,0,0,0-3.2,0A1.629,1.629,0,0,0,181.6,3.2Z" transform="translate(18.603 -18.713)" fill="#747474"/>
          <circle id="Ellipse_13" data-name="Ellipse 13" cx="1.6" cy="1.6" r="1.6" transform="translate(216.323 -18.713)" fill="#747474"/>
          <path id="Path_307" data-name="Path 307" d="M210.4,3.2A1.629,1.629,0,0,0,212,1.6a1.6,1.6,0,0,0-3.2,0A1.629,1.629,0,0,0,210.4,3.2Z" transform="translate(25.242 -18.713)" fill="#747474"/>
          <path id="Path_308" data-name="Path 308" d="M224.8,3.2a1.629,1.629,0,0,0,1.6-1.6,1.6,1.6,0,0,0-3.2,0A1.629,1.629,0,0,0,224.8,3.2Z" transform="translate(28.561 -18.713)" fill="#747474"/>
          <path id="Path_309" data-name="Path 309" d="M239.2,3.2a1.629,1.629,0,0,0,1.6-1.6,1.6,1.6,0,0,0-3.2,0A1.629,1.629,0,0,0,239.2,3.2Z" transform="translate(31.881 -18.713)" fill="#747474"/>
          <path id="Path_310" data-name="Path 310" d="M253.6,3.2a1.629,1.629,0,0,0,1.6-1.6,1.6,1.6,0,0,0-3.2,0A1.629,1.629,0,0,0,253.6,3.2Z" transform="translate(35.2 -18.713)" fill="#747474"/>
          <circle id="Ellipse_14" data-name="Ellipse 14" cx="1.6" cy="1.6" r="1.6" transform="translate(304.92 -18.713)" fill="#747474"/>
          <path id="Path_311" data-name="Path 311" d="M282.4,3.2A1.629,1.629,0,0,0,284,1.6a1.6,1.6,0,1,0-3.2,0A1.629,1.629,0,0,0,282.4,3.2Z" transform="translate(41.839 -18.713)" fill="#747474"/>
          <path id="Path_312" data-name="Path 312" d="M296.8,3.2a1.629,1.629,0,0,0,1.6-1.6,1.6,1.6,0,1,0-3.2,0A1.629,1.629,0,0,0,296.8,3.2Z" transform="translate(45.159 -18.713)" fill="#747474"/>
          <path id="Path_313" data-name="Path 313" d="M311.2,3.2a1.629,1.629,0,0,0,1.6-1.6,1.6,1.6,0,0,0-3.2,0A1.629,1.629,0,0,0,311.2,3.2Z" transform="translate(48.478 -18.713)" fill="#747474"/>
          <path id="Path_314" data-name="Path 314" d="M1.6,17.6a1.6,1.6,0,1,0,0-3.2,1.6,1.6,0,1,0,0,3.2Z" transform="translate(-22.89 -15.393)" fill="#747474"/>
          <circle id="Ellipse_15" data-name="Ellipse 15" cx="1.6" cy="1.6" r="1.6" transform="translate(-5.17 -0.993)" fill="#747474"/>
          <path id="Path_315" data-name="Path 315" d="M30.4,17.6A1.6,1.6,0,1,0,28.8,16,1.629,1.629,0,0,0,30.4,17.6Z" transform="translate(-16.251 -15.393)" fill="#747474"/>
          <path id="Path_316" data-name="Path 316" d="M44.8,17.6A1.6,1.6,0,1,0,43.2,16,1.629,1.629,0,0,0,44.8,17.6Z" transform="translate(-12.931 -15.393)" fill="#747474"/>
          <path id="Path_317" data-name="Path 317" d="M59.2,17.6A1.6,1.6,0,1,0,57.6,16,1.629,1.629,0,0,0,59.2,17.6Z" transform="translate(-9.612 -15.393)" fill="#747474"/>
          <path id="Path_318" data-name="Path 318" d="M73.6,17.6A1.6,1.6,0,1,0,72,16,1.629,1.629,0,0,0,73.6,17.6Z" transform="translate(-6.292 -15.393)" fill="#747474"/>
          <circle id="Ellipse_16" data-name="Ellipse 16" cx="1.6" cy="1.6" r="1.6" transform="translate(83.427 -0.993)" fill="#747474"/>
          <path id="Path_319" data-name="Path 319" d="M102.4,17.6a1.6,1.6,0,1,0-1.6-1.6A1.629,1.629,0,0,0,102.4,17.6Z" transform="translate(0.346 -15.393)" fill="#747474"/>
          <path id="Path_320" data-name="Path 320" d="M116.8,17.6a1.6,1.6,0,1,0-1.6-1.6A1.629,1.629,0,0,0,116.8,17.6Z" transform="translate(3.666 -15.393)" fill="#747474"/>
          <path id="Path_321" data-name="Path 321" d="M131.2,17.6a1.6,1.6,0,1,0-1.6-1.6A1.629,1.629,0,0,0,131.2,17.6Z" transform="translate(6.985 -15.393)" fill="#747474"/>
          <path id="Path_322" data-name="Path 322" d="M145.6,17.6A1.6,1.6,0,1,0,144,16,1.629,1.629,0,0,0,145.6,17.6Z" transform="translate(10.305 -15.393)" fill="#747474"/>
          <circle id="Ellipse_17" data-name="Ellipse 17" cx="1.6" cy="1.6" r="1.6" transform="translate(172.024 -0.993)" fill="#747474"/>
          <path id="Path_323" data-name="Path 323" d="M174.4,17.6a1.6,1.6,0,1,0-1.6-1.6A1.629,1.629,0,0,0,174.4,17.6Z" transform="translate(16.943 -15.393)" fill="#747474"/>
          <path id="Path_324" data-name="Path 324" d="M188.8,17.6a1.6,1.6,0,1,0-1.6-1.6A1.629,1.629,0,0,0,188.8,17.6Z" transform="translate(20.263 -15.393)" fill="#747474"/>
          <path id="Path_325" data-name="Path 325" d="M203.2,17.6a1.6,1.6,0,1,0-1.6-1.6A1.629,1.629,0,0,0,203.2,17.6Z" transform="translate(23.582 -15.393)" fill="#747474"/>
          <path id="Path_326" data-name="Path 326" d="M217.6,17.6A1.6,1.6,0,1,0,216,16,1.629,1.629,0,0,0,217.6,17.6Z" transform="translate(26.902 -15.393)" fill="#747474"/>
          <circle id="Ellipse_18" data-name="Ellipse 18" cx="1.6" cy="1.6" r="1.6" transform="translate(260.621 -0.993)" fill="#747474"/>
          <path id="Path_327" data-name="Path 327" d="M246.4,17.6a1.6,1.6,0,1,0-1.6-1.6A1.629,1.629,0,0,0,246.4,17.6Z" transform="translate(33.541 -15.393)" fill="#747474"/>
          <path id="Path_328" data-name="Path 328" d="M260.8,17.6a1.6,1.6,0,1,0-1.6-1.6A1.629,1.629,0,0,0,260.8,17.6Z" transform="translate(36.86 -15.393)" fill="#747474"/>
          <path id="Path_329" data-name="Path 329" d="M275.2,17.6a1.6,1.6,0,1,0-1.6-1.6A1.629,1.629,0,0,0,275.2,17.6Z" transform="translate(40.179 -15.393)" fill="#747474"/>
          <path id="Path_330" data-name="Path 330" d="M289.6,17.6A1.6,1.6,0,1,0,288,16,1.629,1.629,0,0,0,289.6,17.6Z" transform="translate(43.499 -15.393)" fill="#747474"/>
          <circle id="Ellipse_19" data-name="Ellipse 19" cx="1.6" cy="1.6" r="1.6" transform="translate(349.218 -0.993)" fill="#747474"/>
          <path id="Path_331" data-name="Path 331" d="M8.8,32a1.6,1.6,0,1,0-1.6-1.6A1.629,1.629,0,0,0,8.8,32Z" transform="translate(-21.23 -12.074)" fill="#747474"/>
          <path id="Path_332" data-name="Path 332" d="M23.2,32a1.6,1.6,0,1,0-1.6-1.6A1.629,1.629,0,0,0,23.2,32Z" transform="translate(-17.91 -12.074)" fill="#747474"/>
          <path id="Path_333" data-name="Path 333" d="M37.6,32A1.6,1.6,0,1,0,36,30.4,1.629,1.629,0,0,0,37.6,32Z" transform="translate(-14.591 -12.074)" fill="#747474"/>
          <path id="Path_334" data-name="Path 334" d="M52,32a1.6,1.6,0,1,0-1.6-1.6A1.629,1.629,0,0,0,52,32Z" transform="translate(-11.272 -12.074)" fill="#747474"/>
          <path id="Path_335" data-name="Path 335" d="M66.4,32a1.6,1.6,0,1,0-1.6-1.6A1.629,1.629,0,0,0,66.4,32Z" transform="translate(-7.952 -12.074)" fill="#747474"/>
          <path id="Path_336" data-name="Path 336" d="M80.8,32a1.6,1.6,0,1,0-1.6-1.6A1.629,1.629,0,0,0,80.8,32Z" transform="translate(-4.633 -12.074)" fill="#747474"/>
          <path id="Path_337" data-name="Path 337" d="M95.2,32a1.6,1.6,0,1,0-1.6-1.6A1.629,1.629,0,0,0,95.2,32Z" transform="translate(-1.313 -12.074)" fill="#747474"/>
          <path id="Path_338" data-name="Path 338" d="M109.6,32a1.6,1.6,0,1,0-1.6-1.6A1.629,1.629,0,0,0,109.6,32Z" transform="translate(2.006 -12.074)" fill="#747474"/>
          <path id="Path_339" data-name="Path 339" d="M124,32a1.6,1.6,0,1,0-1.6-1.6A1.629,1.629,0,0,0,124,32Z" transform="translate(5.326 -12.074)" fill="#747474"/>
          <path id="Path_340" data-name="Path 340" d="M138.4,32a1.6,1.6,0,1,0-1.6-1.6A1.629,1.629,0,0,0,138.4,32Z" transform="translate(8.645 -12.074)" fill="#747474"/>
          <path id="Path_341" data-name="Path 341" d="M152.8,32a1.6,1.6,0,1,0-1.6-1.6A1.629,1.629,0,0,0,152.8,32Z" transform="translate(11.964 -12.074)" fill="#747474"/>
          <path id="Path_342" data-name="Path 342" d="M167.2,32a1.6,1.6,0,1,0-1.6-1.6A1.629,1.629,0,0,0,167.2,32Z" transform="translate(15.284 -12.074)" fill="#747474"/>
          <path id="Path_343" data-name="Path 343" d="M181.6,32a1.6,1.6,0,1,0-1.6-1.6A1.629,1.629,0,0,0,181.6,32Z" transform="translate(18.603 -12.074)" fill="#747474"/>
          <path id="Path_344" data-name="Path 344" d="M196,32a1.6,1.6,0,1,0-1.6-1.6A1.629,1.629,0,0,0,196,32Z" transform="translate(21.923 -12.074)" fill="#747474"/>
          <path id="Path_345" data-name="Path 345" d="M210.4,32a1.6,1.6,0,1,0-1.6-1.6A1.629,1.629,0,0,0,210.4,32Z" transform="translate(25.242 -12.074)" fill="#747474"/>
          <path id="Path_346" data-name="Path 346" d="M224.8,32a1.6,1.6,0,1,0-1.6-1.6A1.629,1.629,0,0,0,224.8,32Z" transform="translate(28.561 -12.074)" fill="#747474"/>
          <path id="Path_347" data-name="Path 347" d="M239.2,32a1.6,1.6,0,1,0-1.6-1.6A1.629,1.629,0,0,0,239.2,32Z" transform="translate(31.881 -12.074)" fill="#747474"/>
          <path id="Path_348" data-name="Path 348" d="M253.6,32a1.6,1.6,0,1,0-1.6-1.6A1.629,1.629,0,0,0,253.6,32Z" transform="translate(35.2 -12.074)" fill="#747474"/>
          <path id="Path_349" data-name="Path 349" d="M268,32a1.6,1.6,0,1,0-1.6-1.6A1.629,1.629,0,0,0,268,32Z" transform="translate(38.52 -12.074)" fill="#747474"/>
          <path id="Path_350" data-name="Path 350" d="M282.4,32a1.6,1.6,0,1,0-1.6-1.6A1.629,1.629,0,0,0,282.4,32Z" transform="translate(41.839 -12.074)" fill="#747474"/>
          <path id="Path_351" data-name="Path 351" d="M296.8,32a1.6,1.6,0,1,0-1.6-1.6A1.629,1.629,0,0,0,296.8,32Z" transform="translate(45.159 -12.074)" fill="#747474"/>
          <path id="Path_352" data-name="Path 352" d="M311.2,32a1.6,1.6,0,1,0-1.6-1.6A1.629,1.629,0,0,0,311.2,32Z" transform="translate(48.478 -12.074)" fill="#747474"/>
          <path id="Path_353" data-name="Path 353" d="M1.6,46.4a1.6,1.6,0,0,0,0-3.2,1.6,1.6,0,0,0,0,3.2Z" transform="translate(-22.89 -8.754)" fill="#747474"/>
          <path id="Path_354" data-name="Path 354" d="M16,46.4a1.6,1.6,0,1,0-1.6-1.6A1.629,1.629,0,0,0,16,46.4Z" transform="translate(-19.57 -8.754)" fill="#747474"/>
          <path id="Path_355" data-name="Path 355" d="M30.4,46.4a1.6,1.6,0,1,0-1.6-1.6A1.629,1.629,0,0,0,30.4,46.4Z" transform="translate(-16.251 -8.754)" fill="#747474"/>
          <path id="Path_356" data-name="Path 356" d="M44.8,46.4a1.6,1.6,0,1,0-1.6-1.6A1.629,1.629,0,0,0,44.8,46.4Z" transform="translate(-12.931 -8.754)" fill="#747474"/>
          <path id="Path_357" data-name="Path 357" d="M59.2,46.4a1.6,1.6,0,1,0-1.6-1.6A1.629,1.629,0,0,0,59.2,46.4Z" transform="translate(-9.612 -8.754)" fill="#747474"/>
          <path id="Path_358" data-name="Path 358" d="M73.6,46.4A1.6,1.6,0,1,0,72,44.8,1.629,1.629,0,0,0,73.6,46.4Z" transform="translate(-6.292 -8.754)" fill="#747474"/>
          <path id="Path_359" data-name="Path 359" d="M88,46.4a1.6,1.6,0,1,0-1.6-1.6A1.629,1.629,0,0,0,88,46.4Z" transform="translate(-2.973 -8.754)" fill="#747474"/>
          <path id="Path_360" data-name="Path 360" d="M102.4,46.4a1.6,1.6,0,1,0-1.6-1.6A1.629,1.629,0,0,0,102.4,46.4Z" transform="translate(0.346 -8.754)" fill="#747474"/>
          <path id="Path_361" data-name="Path 361" d="M116.8,46.4a1.6,1.6,0,1,0-1.6-1.6A1.629,1.629,0,0,0,116.8,46.4Z" transform="translate(3.666 -8.754)" fill="#747474"/>
          <path id="Path_362" data-name="Path 362" d="M131.2,46.4a1.6,1.6,0,1,0-1.6-1.6A1.629,1.629,0,0,0,131.2,46.4Z" transform="translate(6.985 -8.754)" fill="#747474"/>
          <path id="Path_363" data-name="Path 363" d="M145.6,46.4a1.6,1.6,0,1,0-1.6-1.6A1.629,1.629,0,0,0,145.6,46.4Z" transform="translate(10.305 -8.754)" fill="#747474"/>
          <path id="Path_364" data-name="Path 364" d="M160,46.4a1.6,1.6,0,1,0-1.6-1.6A1.629,1.629,0,0,0,160,46.4Z" transform="translate(13.624 -8.754)" fill="#747474"/>
          <path id="Path_365" data-name="Path 365" d="M174.4,46.4a1.6,1.6,0,1,0-1.6-1.6A1.629,1.629,0,0,0,174.4,46.4Z" transform="translate(16.943 -8.754)" fill="#747474"/>
          <path id="Path_366" data-name="Path 366" d="M188.8,46.4a1.6,1.6,0,1,0-1.6-1.6A1.629,1.629,0,0,0,188.8,46.4Z" transform="translate(20.263 -8.754)" fill="#747474"/>
          <path id="Path_367" data-name="Path 367" d="M203.2,46.4a1.6,1.6,0,1,0-1.6-1.6A1.629,1.629,0,0,0,203.2,46.4Z" transform="translate(23.582 -8.754)" fill="#747474"/>
          <path id="Path_368" data-name="Path 368" d="M217.6,46.4a1.6,1.6,0,1,0-1.6-1.6A1.629,1.629,0,0,0,217.6,46.4Z" transform="translate(26.902 -8.754)" fill="#747474"/>
          <path id="Path_369" data-name="Path 369" d="M232,46.4a1.6,1.6,0,1,0-1.6-1.6A1.629,1.629,0,0,0,232,46.4Z" transform="translate(30.221 -8.754)" fill="#747474"/>
          <path id="Path_370" data-name="Path 370" d="M246.4,46.4a1.6,1.6,0,1,0-1.6-1.6A1.629,1.629,0,0,0,246.4,46.4Z" transform="translate(33.541 -8.754)" fill="#747474"/>
          <path id="Path_371" data-name="Path 371" d="M260.8,46.4a1.6,1.6,0,1,0-1.6-1.6A1.629,1.629,0,0,0,260.8,46.4Z" transform="translate(36.86 -8.754)" fill="#747474"/>
          <path id="Path_372" data-name="Path 372" d="M275.2,46.4a1.6,1.6,0,1,0-1.6-1.6A1.629,1.629,0,0,0,275.2,46.4Z" transform="translate(40.179 -8.754)" fill="#747474"/>
          <path id="Path_373" data-name="Path 373" d="M289.6,46.4a1.6,1.6,0,1,0-1.6-1.6A1.629,1.629,0,0,0,289.6,46.4Z" transform="translate(43.499 -8.754)" fill="#747474"/>
          <path id="Path_374" data-name="Path 374" d="M304,46.4a1.6,1.6,0,1,0-1.6-1.6A1.629,1.629,0,0,0,304,46.4Z" transform="translate(46.818 -8.754)" fill="#747474"/>
          <path id="Path_375" data-name="Path 375" d="M8.8,60.8a1.6,1.6,0,1,0-1.6-1.6A1.629,1.629,0,0,0,8.8,60.8Z" transform="translate(-21.23 -5.435)" fill="#747474"/>
          <path id="Path_376" data-name="Path 376" d="M23.2,60.8a1.6,1.6,0,1,0-1.6-1.6A1.629,1.629,0,0,0,23.2,60.8Z" transform="translate(-17.91 -5.435)" fill="#747474"/>
          <path id="Path_377" data-name="Path 377" d="M37.6,60.8A1.6,1.6,0,1,0,36,59.2,1.629,1.629,0,0,0,37.6,60.8Z" transform="translate(-14.591 -5.435)" fill="#747474"/>
          <path id="Path_378" data-name="Path 378" d="M52,60.8a1.6,1.6,0,1,0-1.6-1.6A1.629,1.629,0,0,0,52,60.8Z" transform="translate(-11.272 -5.435)" fill="#747474"/>
          <path id="Path_379" data-name="Path 379" d="M66.4,60.8a1.6,1.6,0,1,0-1.6-1.6A1.629,1.629,0,0,0,66.4,60.8Z" transform="translate(-7.952 -5.435)" fill="#747474"/>
          <path id="Path_380" data-name="Path 380" d="M80.8,60.8a1.6,1.6,0,1,0-1.6-1.6A1.629,1.629,0,0,0,80.8,60.8Z" transform="translate(-4.633 -5.435)" fill="#747474"/>
          <path id="Path_381" data-name="Path 381" d="M95.2,60.8a1.6,1.6,0,1,0-1.6-1.6A1.629,1.629,0,0,0,95.2,60.8Z" transform="translate(-1.313 -5.435)" fill="#747474"/>
          <path id="Path_382" data-name="Path 382" d="M109.6,60.8a1.6,1.6,0,1,0-1.6-1.6A1.629,1.629,0,0,0,109.6,60.8Z" transform="translate(2.006 -5.435)" fill="#747474"/>
          <path id="Path_383" data-name="Path 383" d="M124,60.8a1.6,1.6,0,1,0-1.6-1.6A1.629,1.629,0,0,0,124,60.8Z" transform="translate(5.326 -5.435)" fill="#747474"/>
          <path id="Path_384" data-name="Path 384" d="M138.4,60.8a1.6,1.6,0,1,0-1.6-1.6A1.629,1.629,0,0,0,138.4,60.8Z" transform="translate(8.645 -5.435)" fill="#747474"/>
          <path id="Path_385" data-name="Path 385" d="M152.8,60.8a1.6,1.6,0,1,0-1.6-1.6A1.629,1.629,0,0,0,152.8,60.8Z" transform="translate(11.964 -5.435)" fill="#747474"/>
          <path id="Path_386" data-name="Path 386" d="M167.2,60.8a1.6,1.6,0,1,0-1.6-1.6A1.629,1.629,0,0,0,167.2,60.8Z" transform="translate(15.284 -5.435)" fill="#747474"/>
          <path id="Path_387" data-name="Path 387" d="M181.6,60.8a1.6,1.6,0,1,0-1.6-1.6A1.629,1.629,0,0,0,181.6,60.8Z" transform="translate(18.603 -5.435)" fill="#747474"/>
          <path id="Path_388" data-name="Path 388" d="M196,60.8a1.6,1.6,0,1,0-1.6-1.6A1.629,1.629,0,0,0,196,60.8Z" transform="translate(21.923 -5.435)" fill="#747474"/>
          <path id="Path_389" data-name="Path 389" d="M210.4,60.8a1.6,1.6,0,1,0-1.6-1.6A1.629,1.629,0,0,0,210.4,60.8Z" transform="translate(25.242 -5.435)" fill="#747474"/>
          <path id="Path_390" data-name="Path 390" d="M224.8,60.8a1.6,1.6,0,1,0-1.6-1.6A1.629,1.629,0,0,0,224.8,60.8Z" transform="translate(28.561 -5.435)" fill="#747474"/>
          <path id="Path_391" data-name="Path 391" d="M239.2,60.8a1.6,1.6,0,1,0-1.6-1.6A1.629,1.629,0,0,0,239.2,60.8Z" transform="translate(31.881 -5.435)" fill="#747474"/>
          <path id="Path_392" data-name="Path 392" d="M253.6,60.8a1.6,1.6,0,1,0-1.6-1.6A1.629,1.629,0,0,0,253.6,60.8Z" transform="translate(35.2 -5.435)" fill="#747474"/>
          <path id="Path_393" data-name="Path 393" d="M268,60.8a1.6,1.6,0,1,0-1.6-1.6A1.629,1.629,0,0,0,268,60.8Z" transform="translate(38.52 -5.435)" fill="#747474"/>
          <path id="Path_394" data-name="Path 394" d="M282.4,60.8a1.6,1.6,0,1,0-1.6-1.6A1.629,1.629,0,0,0,282.4,60.8Z" transform="translate(41.839 -5.435)" fill="#747474"/>
          <path id="Path_395" data-name="Path 395" d="M296.8,60.8a1.6,1.6,0,1,0-1.6-1.6A1.629,1.629,0,0,0,296.8,60.8Z" transform="translate(45.159 -5.435)" fill="#747474"/>
          <path id="Path_396" data-name="Path 396" d="M311.2,60.8a1.6,1.6,0,1,0-1.6-1.6A1.629,1.629,0,0,0,311.2,60.8Z" transform="translate(48.478 -5.435)" fill="#747474"/>
          <path id="Path_397" data-name="Path 397" d="M1.6,75.2a1.6,1.6,0,0,0,0-3.2,1.6,1.6,0,0,0,0,3.2Z" transform="translate(-22.89 -2.115)" fill="#747474"/>
          <circle id="Ellipse_20" data-name="Ellipse 20" cx="1.6" cy="1.6" r="1.6" transform="translate(-5.17 69.885)" fill="#747474"/>
          <path id="Path_398" data-name="Path 398" d="M30.4,75.2a1.6,1.6,0,1,0-1.6-1.6A1.629,1.629,0,0,0,30.4,75.2Z" transform="translate(-16.251 -2.115)" fill="#747474"/>
          <path id="Path_399" data-name="Path 399" d="M44.8,75.2a1.6,1.6,0,1,0-1.6-1.6A1.629,1.629,0,0,0,44.8,75.2Z" transform="translate(-12.931 -2.115)" fill="#747474"/>
          <path id="Path_400" data-name="Path 400" d="M59.2,75.2a1.6,1.6,0,1,0-1.6-1.6A1.629,1.629,0,0,0,59.2,75.2Z" transform="translate(-9.612 -2.115)" fill="#747474"/>
          <path id="Path_401" data-name="Path 401" d="M73.6,75.2A1.6,1.6,0,1,0,72,73.6,1.629,1.629,0,0,0,73.6,75.2Z" transform="translate(-6.292 -2.115)" fill="#747474"/>
          <circle id="Ellipse_21" data-name="Ellipse 21" cx="1.6" cy="1.6" r="1.6" transform="translate(83.427 69.885)" fill="#747474"/>
          <path id="Path_402" data-name="Path 402" d="M102.4,75.2a1.6,1.6,0,1,0-1.6-1.6A1.629,1.629,0,0,0,102.4,75.2Z" transform="translate(0.346 -2.115)" fill="#747474"/>
          <path id="Path_403" data-name="Path 403" d="M116.8,75.2a1.6,1.6,0,1,0-1.6-1.6A1.629,1.629,0,0,0,116.8,75.2Z" transform="translate(3.666 -2.115)" fill="#747474"/>
          <path id="Path_404" data-name="Path 404" d="M131.2,75.2a1.6,1.6,0,1,0-1.6-1.6A1.629,1.629,0,0,0,131.2,75.2Z" transform="translate(6.985 -2.115)" fill="#747474"/>
          <path id="Path_405" data-name="Path 405" d="M145.6,75.2a1.6,1.6,0,1,0-1.6-1.6A1.629,1.629,0,0,0,145.6,75.2Z" transform="translate(10.305 -2.115)" fill="#747474"/>
          <circle id="Ellipse_22" data-name="Ellipse 22" cx="1.6" cy="1.6" r="1.6" transform="translate(172.024 69.885)" fill="#747474"/>
          <path id="Path_406" data-name="Path 406" d="M174.4,75.2a1.6,1.6,0,1,0-1.6-1.6A1.629,1.629,0,0,0,174.4,75.2Z" transform="translate(16.943 -2.115)" fill="#747474"/>
          <path id="Path_407" data-name="Path 407" d="M188.8,75.2a1.6,1.6,0,1,0-1.6-1.6A1.629,1.629,0,0,0,188.8,75.2Z" transform="translate(20.263 -2.115)" fill="#747474"/>
          <path id="Path_408" data-name="Path 408" d="M203.2,75.2a1.6,1.6,0,1,0-1.6-1.6A1.629,1.629,0,0,0,203.2,75.2Z" transform="translate(23.582 -2.115)" fill="#747474"/>
          <path id="Path_409" data-name="Path 409" d="M217.6,75.2a1.6,1.6,0,1,0-1.6-1.6A1.629,1.629,0,0,0,217.6,75.2Z" transform="translate(26.902 -2.115)" fill="#747474"/>
          <circle id="Ellipse_23" data-name="Ellipse 23" cx="1.6" cy="1.6" r="1.6" transform="translate(260.621 69.885)" fill="#747474"/>
          <path id="Path_410" data-name="Path 410" d="M246.4,75.2a1.6,1.6,0,1,0-1.6-1.6A1.629,1.629,0,0,0,246.4,75.2Z" transform="translate(33.541 -2.115)" fill="#747474"/>
          <path id="Path_411" data-name="Path 411" d="M260.8,75.2a1.6,1.6,0,1,0-1.6-1.6A1.629,1.629,0,0,0,260.8,75.2Z" transform="translate(36.86 -2.115)" fill="#747474"/>
          <path id="Path_412" data-name="Path 412" d="M275.2,75.2a1.6,1.6,0,1,0-1.6-1.6A1.629,1.629,0,0,0,275.2,75.2Z" transform="translate(40.179 -2.115)" fill="#747474"/>
          <path id="Path_413" data-name="Path 413" d="M289.6,75.2a1.6,1.6,0,1,0-1.6-1.6A1.629,1.629,0,0,0,289.6,75.2Z" transform="translate(43.499 -2.115)" fill="#747474"/>
          <circle id="Ellipse_24" data-name="Ellipse 24" cx="1.6" cy="1.6" r="1.6" transform="translate(349.218 69.885)" fill="#747474"/>
          <path id="Path_414" data-name="Path 414" d="M8.8,89.6A1.6,1.6,0,1,0,7.2,88,1.629,1.629,0,0,0,8.8,89.6Z" transform="translate(-21.23 1.204)" fill="#747474"/>
          <path id="Path_415" data-name="Path 415" d="M23.2,89.6A1.6,1.6,0,1,0,21.6,88,1.629,1.629,0,0,0,23.2,89.6Z" transform="translate(-17.91 1.204)" fill="#747474"/>
          <path id="Path_416" data-name="Path 416" d="M37.6,89.6A1.6,1.6,0,1,0,36,88,1.629,1.629,0,0,0,37.6,89.6Z" transform="translate(-14.591 1.204)" fill="#747474"/>
          <circle id="Ellipse_25" data-name="Ellipse 25" cx="1.6" cy="1.6" r="1.6" transform="translate(39.128 87.604)" fill="#747474"/>
          <path id="Path_417" data-name="Path 417" d="M66.4,89.6A1.6,1.6,0,1,0,64.8,88,1.629,1.629,0,0,0,66.4,89.6Z" transform="translate(-7.952 1.204)" fill="#747474"/>
          <path id="Path_418" data-name="Path 418" d="M80.8,89.6A1.6,1.6,0,1,0,79.2,88,1.629,1.629,0,0,0,80.8,89.6Z" transform="translate(-4.633 1.204)" fill="#747474"/>
          <path id="Path_419" data-name="Path 419" d="M95.2,89.6A1.6,1.6,0,1,0,93.6,88,1.629,1.629,0,0,0,95.2,89.6Z" transform="translate(-1.313 1.204)" fill="#747474"/>
          <path id="Path_420" data-name="Path 420" d="M109.6,89.6A1.6,1.6,0,1,0,108,88,1.629,1.629,0,0,0,109.6,89.6Z" transform="translate(2.006 1.204)" fill="#747474"/>
          <circle id="Ellipse_26" data-name="Ellipse 26" cx="1.6" cy="1.6" r="1.6" transform="translate(127.726 87.604)" fill="#747474"/>
          <path id="Path_421" data-name="Path 421" d="M138.4,89.6a1.6,1.6,0,1,0-1.6-1.6A1.629,1.629,0,0,0,138.4,89.6Z" transform="translate(8.645 1.204)" fill="#747474"/>
          <path id="Path_422" data-name="Path 422" d="M152.8,89.6a1.6,1.6,0,1,0-1.6-1.6A1.629,1.629,0,0,0,152.8,89.6Z" transform="translate(11.964 1.204)" fill="#747474"/>
          <path id="Path_423" data-name="Path 423" d="M167.2,89.6a1.6,1.6,0,1,0-1.6-1.6A1.629,1.629,0,0,0,167.2,89.6Z" transform="translate(15.284 1.204)" fill="#747474"/>
          <path id="Path_424" data-name="Path 424" d="M181.6,89.6A1.6,1.6,0,1,0,180,88,1.629,1.629,0,0,0,181.6,89.6Z" transform="translate(18.603 1.204)" fill="#747474"/>
          <circle id="Ellipse_27" data-name="Ellipse 27" cx="1.6" cy="1.6" r="1.6" transform="translate(216.323 87.604)" fill="#747474"/>
          <path id="Path_425" data-name="Path 425" d="M210.4,89.6a1.6,1.6,0,1,0-1.6-1.6A1.629,1.629,0,0,0,210.4,89.6Z" transform="translate(25.242 1.204)" fill="#747474"/>
          <path id="Path_426" data-name="Path 426" d="M224.8,89.6a1.6,1.6,0,1,0-1.6-1.6A1.629,1.629,0,0,0,224.8,89.6Z" transform="translate(28.561 1.204)" fill="#747474"/>
          <path id="Path_427" data-name="Path 427" d="M239.2,89.6a1.6,1.6,0,1,0-1.6-1.6A1.629,1.629,0,0,0,239.2,89.6Z" transform="translate(31.881 1.204)" fill="#747474"/>
          <path id="Path_428" data-name="Path 428" d="M253.6,89.6A1.6,1.6,0,1,0,252,88,1.629,1.629,0,0,0,253.6,89.6Z" transform="translate(35.2 1.204)" fill="#747474"/>
          <circle id="Ellipse_28" data-name="Ellipse 28" cx="1.6" cy="1.6" r="1.6" transform="translate(304.92 87.604)" fill="#747474"/>
          <path id="Path_429" data-name="Path 429" d="M282.4,89.6a1.6,1.6,0,1,0-1.6-1.6A1.629,1.629,0,0,0,282.4,89.6Z" transform="translate(41.839 1.204)" fill="#747474"/>
          <path id="Path_430" data-name="Path 430" d="M296.8,89.6a1.6,1.6,0,1,0-1.6-1.6A1.629,1.629,0,0,0,296.8,89.6Z" transform="translate(45.159 1.204)" fill="#747474"/>
          <path id="Path_431" data-name="Path 431" d="M311.2,89.6a1.6,1.6,0,1,0-1.6-1.6A1.629,1.629,0,0,0,311.2,89.6Z" transform="translate(48.478 1.204)" fill="#747474"/>
          <path id="Path_432" data-name="Path 432" d="M1.6,104a1.6,1.6,0,0,0,0-3.2,1.6,1.6,0,0,0,0,3.2Z" transform="translate(-22.89 4.523)" fill="#747474"/>
          <path id="Path_433" data-name="Path 433" d="M16,104a1.6,1.6,0,1,0-1.6-1.6A1.629,1.629,0,0,0,16,104Z" transform="translate(-19.57 4.523)" fill="#747474"/>
          <path id="Path_434" data-name="Path 434" d="M30.4,104a1.6,1.6,0,1,0-1.6-1.6A1.629,1.629,0,0,0,30.4,104Z" transform="translate(-16.251 4.523)" fill="#747474"/>
          <path id="Path_435" data-name="Path 435" d="M44.8,104a1.6,1.6,0,1,0-1.6-1.6A1.629,1.629,0,0,0,44.8,104Z" transform="translate(-12.931 4.523)" fill="#747474"/>
          <path id="Path_436" data-name="Path 436" d="M59.2,104a1.6,1.6,0,1,0-1.6-1.6A1.629,1.629,0,0,0,59.2,104Z" transform="translate(-9.612 4.523)" fill="#747474"/>
          <path id="Path_437" data-name="Path 437" d="M73.6,104a1.6,1.6,0,1,0-1.6-1.6A1.629,1.629,0,0,0,73.6,104Z" transform="translate(-6.292 4.523)" fill="#747474"/>
          <path id="Path_438" data-name="Path 438" d="M88,104a1.6,1.6,0,1,0-1.6-1.6A1.629,1.629,0,0,0,88,104Z" transform="translate(-2.973 4.523)" fill="#747474"/>
          <path id="Path_439" data-name="Path 439" d="M102.4,104a1.6,1.6,0,1,0-1.6-1.6A1.629,1.629,0,0,0,102.4,104Z" transform="translate(0.346 4.523)" fill="#747474"/>
          <path id="Path_440" data-name="Path 440" d="M116.8,104a1.6,1.6,0,1,0-1.6-1.6A1.629,1.629,0,0,0,116.8,104Z" transform="translate(3.666 4.523)" fill="#747474"/>
          <path id="Path_441" data-name="Path 441" d="M131.2,104a1.6,1.6,0,1,0-1.6-1.6A1.629,1.629,0,0,0,131.2,104Z" transform="translate(6.985 4.523)" fill="#747474"/>
          <path id="Path_442" data-name="Path 442" d="M145.6,104a1.6,1.6,0,1,0-1.6-1.6A1.629,1.629,0,0,0,145.6,104Z" transform="translate(10.305 4.523)" fill="#747474"/>
          <path id="Path_443" data-name="Path 443" d="M160,104a1.6,1.6,0,1,0-1.6-1.6A1.629,1.629,0,0,0,160,104Z" transform="translate(13.624 4.523)" fill="#747474"/>
          <path id="Path_444" data-name="Path 444" d="M174.4,104a1.6,1.6,0,1,0-1.6-1.6A1.629,1.629,0,0,0,174.4,104Z" transform="translate(16.943 4.523)" fill="#747474"/>
          <path id="Path_445" data-name="Path 445" d="M188.8,104a1.6,1.6,0,1,0-1.6-1.6A1.629,1.629,0,0,0,188.8,104Z" transform="translate(20.263 4.523)" fill="#747474"/>
          <path id="Path_446" data-name="Path 446" d="M203.2,104a1.6,1.6,0,1,0-1.6-1.6A1.629,1.629,0,0,0,203.2,104Z" transform="translate(23.582 4.523)" fill="#747474"/>
          <path id="Path_447" data-name="Path 447" d="M217.6,104a1.6,1.6,0,1,0-1.6-1.6A1.629,1.629,0,0,0,217.6,104Z" transform="translate(26.902 4.523)" fill="#747474"/>
          <path id="Path_448" data-name="Path 448" d="M232,104a1.6,1.6,0,1,0-1.6-1.6A1.629,1.629,0,0,0,232,104Z" transform="translate(30.221 4.523)" fill="#747474"/>
          <path id="Path_449" data-name="Path 449" d="M246.4,104a1.6,1.6,0,1,0-1.6-1.6A1.629,1.629,0,0,0,246.4,104Z" transform="translate(33.541 4.523)" fill="#747474"/>
          <path id="Path_450" data-name="Path 450" d="M260.8,104a1.6,1.6,0,1,0-1.6-1.6A1.629,1.629,0,0,0,260.8,104Z" transform="translate(36.86 4.523)" fill="#747474"/>
          <path id="Path_451" data-name="Path 451" d="M275.2,104a1.6,1.6,0,1,0-1.6-1.6A1.629,1.629,0,0,0,275.2,104Z" transform="translate(40.179 4.523)" fill="#747474"/>
          <path id="Path_452" data-name="Path 452" d="M289.6,104a1.6,1.6,0,1,0-1.6-1.6A1.629,1.629,0,0,0,289.6,104Z" transform="translate(43.499 4.523)" fill="#747474"/>
          <path id="Path_453" data-name="Path 453" d="M304,104a1.6,1.6,0,1,0-1.6-1.6A1.629,1.629,0,0,0,304,104Z" transform="translate(46.818 4.523)" fill="#747474"/>
          <path id="Path_454" data-name="Path 454" d="M8.8,118.4a1.6,1.6,0,1,0-1.6-1.6A1.629,1.629,0,0,0,8.8,118.4Z" transform="translate(-21.23 7.843)" fill="#747474"/>
          <path id="Path_455" data-name="Path 455" d="M23.2,118.4a1.6,1.6,0,1,0-1.6-1.6A1.629,1.629,0,0,0,23.2,118.4Z" transform="translate(-17.91 7.843)" fill="#747474"/>
          <path id="Path_456" data-name="Path 456" d="M37.6,118.4a1.6,1.6,0,1,0-1.6-1.6A1.629,1.629,0,0,0,37.6,118.4Z" transform="translate(-14.591 7.843)" fill="#747474"/>
          <path id="Path_457" data-name="Path 457" d="M52,118.4a1.6,1.6,0,1,0-1.6-1.6A1.629,1.629,0,0,0,52,118.4Z" transform="translate(-11.272 7.843)" fill="#747474"/>
          <path id="Path_458" data-name="Path 458" d="M66.4,118.4a1.6,1.6,0,1,0-1.6-1.6A1.629,1.629,0,0,0,66.4,118.4Z" transform="translate(-7.952 7.843)" fill="#747474"/>
          <path id="Path_459" data-name="Path 459" d="M80.8,118.4a1.6,1.6,0,1,0-1.6-1.6A1.629,1.629,0,0,0,80.8,118.4Z" transform="translate(-4.633 7.843)" fill="#747474"/>
          <path id="Path_460" data-name="Path 460" d="M95.2,118.4a1.6,1.6,0,1,0-1.6-1.6A1.629,1.629,0,0,0,95.2,118.4Z" transform="translate(-1.313 7.843)" fill="#747474"/>
          <path id="Path_461" data-name="Path 461" d="M109.6,118.4a1.6,1.6,0,1,0-1.6-1.6A1.629,1.629,0,0,0,109.6,118.4Z" transform="translate(2.006 7.843)" fill="#747474"/>
          <path id="Path_462" data-name="Path 462" d="M124,118.4a1.6,1.6,0,1,0-1.6-1.6A1.629,1.629,0,0,0,124,118.4Z" transform="translate(5.326 7.843)" fill="#747474"/>
          <path id="Path_463" data-name="Path 463" d="M138.4,118.4a1.6,1.6,0,1,0-1.6-1.6A1.629,1.629,0,0,0,138.4,118.4Z" transform="translate(8.645 7.843)" fill="#747474"/>
          <path id="Path_464" data-name="Path 464" d="M152.8,118.4a1.6,1.6,0,1,0-1.6-1.6A1.629,1.629,0,0,0,152.8,118.4Z" transform="translate(11.964 7.843)" fill="#747474"/>
          <path id="Path_465" data-name="Path 465" d="M167.2,118.4a1.6,1.6,0,1,0-1.6-1.6A1.629,1.629,0,0,0,167.2,118.4Z" transform="translate(15.284 7.843)" fill="#747474"/>
          <path id="Path_466" data-name="Path 466" d="M181.6,118.4a1.6,1.6,0,1,0-1.6-1.6A1.629,1.629,0,0,0,181.6,118.4Z" transform="translate(18.603 7.843)" fill="#747474"/>
          <path id="Path_467" data-name="Path 467" d="M196,118.4a1.6,1.6,0,1,0-1.6-1.6A1.629,1.629,0,0,0,196,118.4Z" transform="translate(21.923 7.843)" fill="#747474"/>
          <path id="Path_468" data-name="Path 468" d="M210.4,118.4a1.6,1.6,0,1,0-1.6-1.6A1.629,1.629,0,0,0,210.4,118.4Z" transform="translate(25.242 7.843)" fill="#747474"/>
          <path id="Path_469" data-name="Path 469" d="M224.8,118.4a1.6,1.6,0,1,0-1.6-1.6A1.629,1.629,0,0,0,224.8,118.4Z" transform="translate(28.561 7.843)" fill="#747474"/>
          <path id="Path_470" data-name="Path 470" d="M239.2,118.4a1.6,1.6,0,1,0-1.6-1.6A1.629,1.629,0,0,0,239.2,118.4Z" transform="translate(31.881 7.843)" fill="#747474"/>
          <path id="Path_471" data-name="Path 471" d="M253.6,118.4a1.6,1.6,0,1,0-1.6-1.6A1.629,1.629,0,0,0,253.6,118.4Z" transform="translate(35.2 7.843)" fill="#747474"/>
          <path id="Path_472" data-name="Path 472" d="M268,118.4a1.6,1.6,0,1,0-1.6-1.6A1.629,1.629,0,0,0,268,118.4Z" transform="translate(38.52 7.843)" fill="#747474"/>
          <path id="Path_473" data-name="Path 473" d="M282.4,118.4a1.6,1.6,0,1,0-1.6-1.6A1.629,1.629,0,0,0,282.4,118.4Z" transform="translate(41.839 7.843)" fill="#747474"/>
          <path id="Path_474" data-name="Path 474" d="M296.8,118.4a1.6,1.6,0,1,0-1.6-1.6A1.629,1.629,0,0,0,296.8,118.4Z" transform="translate(45.159 7.843)" fill="#747474"/>
          <path id="Path_475" data-name="Path 475" d="M311.2,118.4a1.6,1.6,0,1,0-1.6-1.6A1.629,1.629,0,0,0,311.2,118.4Z" transform="translate(48.478 7.843)" fill="#747474"/>
          <path id="Path_476" data-name="Path 476" d="M1.6,132.8a1.6,1.6,0,0,0,0-3.2,1.6,1.6,0,0,0,0,3.2Z" transform="translate(-22.89 11.162)" fill="#747474"/>
          <path id="Path_477" data-name="Path 477" d="M16,132.8a1.6,1.6,0,1,0-1.6-1.6A1.629,1.629,0,0,0,16,132.8Z" transform="translate(-19.57 11.162)" fill="#747474"/>
          <path id="Path_478" data-name="Path 478" d="M30.4,132.8a1.6,1.6,0,1,0-1.6-1.6A1.629,1.629,0,0,0,30.4,132.8Z" transform="translate(-16.251 11.162)" fill="#747474"/>
          <path id="Path_479" data-name="Path 479" d="M44.8,132.8a1.6,1.6,0,1,0-1.6-1.6A1.629,1.629,0,0,0,44.8,132.8Z" transform="translate(-12.931 11.162)" fill="#747474"/>
          <path id="Path_480" data-name="Path 480" d="M59.2,132.8a1.6,1.6,0,1,0-1.6-1.6A1.629,1.629,0,0,0,59.2,132.8Z" transform="translate(-9.612 11.162)" fill="#747474"/>
          <path id="Path_481" data-name="Path 481" d="M73.6,132.8a1.6,1.6,0,1,0-1.6-1.6A1.629,1.629,0,0,0,73.6,132.8Z" transform="translate(-6.292 11.162)" fill="#747474"/>
          <path id="Path_482" data-name="Path 482" d="M88,132.8a1.6,1.6,0,1,0-1.6-1.6A1.629,1.629,0,0,0,88,132.8Z" transform="translate(-2.973 11.162)" fill="#747474"/>
          <path id="Path_483" data-name="Path 483" d="M102.4,132.8a1.6,1.6,0,1,0-1.6-1.6A1.629,1.629,0,0,0,102.4,132.8Z" transform="translate(0.346 11.162)" fill="#747474"/>
          <path id="Path_484" data-name="Path 484" d="M116.8,132.8a1.6,1.6,0,1,0-1.6-1.6A1.629,1.629,0,0,0,116.8,132.8Z" transform="translate(3.666 11.162)" fill="#747474"/>
          <path id="Path_485" data-name="Path 485" d="M131.2,132.8a1.6,1.6,0,1,0-1.6-1.6A1.629,1.629,0,0,0,131.2,132.8Z" transform="translate(6.985 11.162)" fill="#747474"/>
          <path id="Path_486" data-name="Path 486" d="M145.6,132.8a1.6,1.6,0,1,0-1.6-1.6A1.629,1.629,0,0,0,145.6,132.8Z" transform="translate(10.305 11.162)" fill="#747474"/>
          <path id="Path_487" data-name="Path 487" d="M160,132.8a1.6,1.6,0,1,0-1.6-1.6A1.629,1.629,0,0,0,160,132.8Z" transform="translate(13.624 11.162)" fill="#747474"/>
          <path id="Path_488" data-name="Path 488" d="M174.4,132.8a1.6,1.6,0,1,0-1.6-1.6A1.629,1.629,0,0,0,174.4,132.8Z" transform="translate(16.943 11.162)" fill="#747474"/>
          <path id="Path_489" data-name="Path 489" d="M188.8,132.8a1.6,1.6,0,1,0-1.6-1.6A1.629,1.629,0,0,0,188.8,132.8Z" transform="translate(20.263 11.162)" fill="#747474"/>
          <path id="Path_490" data-name="Path 490" d="M203.2,132.8a1.6,1.6,0,1,0-1.6-1.6A1.629,1.629,0,0,0,203.2,132.8Z" transform="translate(23.582 11.162)" fill="#747474"/>
          <path id="Path_491" data-name="Path 491" d="M217.6,132.8a1.6,1.6,0,1,0-1.6-1.6A1.629,1.629,0,0,0,217.6,132.8Z" transform="translate(26.902 11.162)" fill="#747474"/>
          <path id="Path_492" data-name="Path 492" d="M232,132.8a1.6,1.6,0,1,0-1.6-1.6A1.629,1.629,0,0,0,232,132.8Z" transform="translate(30.221 11.162)" fill="#747474"/>
          <path id="Path_493" data-name="Path 493" d="M246.4,132.8a1.6,1.6,0,1,0-1.6-1.6A1.629,1.629,0,0,0,246.4,132.8Z" transform="translate(33.541 11.162)" fill="#747474"/>
          <path id="Path_494" data-name="Path 494" d="M260.8,132.8a1.6,1.6,0,1,0-1.6-1.6A1.629,1.629,0,0,0,260.8,132.8Z" transform="translate(36.86 11.162)" fill="#747474"/>
          <path id="Path_495" data-name="Path 495" d="M275.2,132.8a1.6,1.6,0,1,0-1.6-1.6A1.629,1.629,0,0,0,275.2,132.8Z" transform="translate(40.179 11.162)" fill="#747474"/>
          <path id="Path_496" data-name="Path 496" d="M289.6,132.8a1.6,1.6,0,1,0-1.6-1.6A1.629,1.629,0,0,0,289.6,132.8Z" transform="translate(43.499 11.162)" fill="#747474"/>
          <path id="Path_497" data-name="Path 497" d="M304,132.8a1.6,1.6,0,1,0-1.6-1.6A1.629,1.629,0,0,0,304,132.8Z" transform="translate(46.818 11.162)" fill="#747474"/>
          <path id="Path_498" data-name="Path 498" d="M8.8,147.2a1.6,1.6,0,1,0-1.6-1.6A1.629,1.629,0,0,0,8.8,147.2Z" transform="translate(-21.23 14.482)" fill="#747474"/>
          <path id="Path_499" data-name="Path 499" d="M23.2,147.2a1.6,1.6,0,1,0-1.6-1.6A1.629,1.629,0,0,0,23.2,147.2Z" transform="translate(-17.91 14.482)" fill="#747474"/>
          <path id="Path_500" data-name="Path 500" d="M37.6,147.2a1.6,1.6,0,1,0-1.6-1.6A1.629,1.629,0,0,0,37.6,147.2Z" transform="translate(-14.591 14.482)" fill="#747474"/>
          <circle id="Ellipse_29" data-name="Ellipse 29" cx="1.6" cy="1.6" r="1.6" transform="translate(39.128 158.482)" fill="#747474"/>
          <path id="Path_501" data-name="Path 501" d="M66.4,147.2a1.6,1.6,0,1,0-1.6-1.6A1.629,1.629,0,0,0,66.4,147.2Z" transform="translate(-7.952 14.482)" fill="#747474"/>
          <path id="Path_502" data-name="Path 502" d="M80.8,147.2a1.6,1.6,0,1,0-1.6-1.6A1.629,1.629,0,0,0,80.8,147.2Z" transform="translate(-4.633 14.482)" fill="#747474"/>
          <path id="Path_503" data-name="Path 503" d="M95.2,147.2a1.6,1.6,0,1,0-1.6-1.6A1.629,1.629,0,0,0,95.2,147.2Z" transform="translate(-1.313 14.482)" fill="#747474"/>
          <path id="Path_504" data-name="Path 504" d="M109.6,147.2a1.6,1.6,0,1,0-1.6-1.6A1.629,1.629,0,0,0,109.6,147.2Z" transform="translate(2.006 14.482)" fill="#747474"/>
          <circle id="Ellipse_30" data-name="Ellipse 30" cx="1.6" cy="1.6" r="1.6" transform="translate(127.726 158.482)" fill="#747474"/>
          <path id="Path_505" data-name="Path 505" d="M138.4,147.2a1.6,1.6,0,1,0-1.6-1.6A1.629,1.629,0,0,0,138.4,147.2Z" transform="translate(8.645 14.482)" fill="#747474"/>
          <path id="Path_506" data-name="Path 506" d="M152.8,147.2a1.6,1.6,0,1,0-1.6-1.6A1.629,1.629,0,0,0,152.8,147.2Z" transform="translate(11.964 14.482)" fill="#747474"/>
          <path id="Path_507" data-name="Path 507" d="M167.2,147.2a1.6,1.6,0,1,0-1.6-1.6A1.629,1.629,0,0,0,167.2,147.2Z" transform="translate(15.284 14.482)" fill="#747474"/>
          <path id="Path_508" data-name="Path 508" d="M181.6,147.2a1.6,1.6,0,1,0-1.6-1.6A1.629,1.629,0,0,0,181.6,147.2Z" transform="translate(18.603 14.482)" fill="#747474"/>
          <circle id="Ellipse_31" data-name="Ellipse 31" cx="1.6" cy="1.6" r="1.6" transform="translate(216.323 158.482)" fill="#747474"/>
          <path id="Path_509" data-name="Path 509" d="M210.4,147.2a1.6,1.6,0,1,0-1.6-1.6A1.629,1.629,0,0,0,210.4,147.2Z" transform="translate(25.242 14.482)" fill="#747474"/>
          <path id="Path_510" data-name="Path 510" d="M224.8,147.2a1.6,1.6,0,1,0-1.6-1.6A1.629,1.629,0,0,0,224.8,147.2Z" transform="translate(28.561 14.482)" fill="#747474"/>
          <path id="Path_511" data-name="Path 511" d="M239.2,147.2a1.6,1.6,0,1,0-1.6-1.6A1.629,1.629,0,0,0,239.2,147.2Z" transform="translate(31.881 14.482)" fill="#747474"/>
          <path id="Path_512" data-name="Path 512" d="M253.6,147.2a1.6,1.6,0,1,0-1.6-1.6A1.629,1.629,0,0,0,253.6,147.2Z" transform="translate(35.2 14.482)" fill="#747474"/>
          <circle id="Ellipse_32" data-name="Ellipse 32" cx="1.6" cy="1.6" r="1.6" transform="translate(304.92 158.482)" fill="#747474"/>
          <path id="Path_513" data-name="Path 513" d="M282.4,147.2a1.6,1.6,0,1,0-1.6-1.6A1.629,1.629,0,0,0,282.4,147.2Z" transform="translate(41.839 14.482)" fill="#747474"/>
          <path id="Path_514" data-name="Path 514" d="M296.8,147.2a1.6,1.6,0,1,0-1.6-1.6A1.629,1.629,0,0,0,296.8,147.2Z" transform="translate(45.159 14.482)" fill="#747474"/>
          <path id="Path_515" data-name="Path 515" d="M311.2,147.2a1.6,1.6,0,1,0-1.6-1.6A1.629,1.629,0,0,0,311.2,147.2Z" transform="translate(48.478 14.482)" fill="#747474"/>
          <path id="Path_516" data-name="Path 516" d="M1.6,161.6a1.6,1.6,0,0,0,0-3.2,1.6,1.6,0,0,0,0,3.2Z" transform="translate(-22.89 17.801)" fill="#747474"/>
          <circle id="Ellipse_33" data-name="Ellipse 33" cx="1.6" cy="1.6" r="1.6" transform="translate(-5.17 176.201)" fill="#747474"/>
          <path id="Path_517" data-name="Path 517" d="M30.4,161.6a1.6,1.6,0,1,0-1.6-1.6A1.629,1.629,0,0,0,30.4,161.6Z" transform="translate(-16.251 17.801)" fill="#747474"/>
          <path id="Path_518" data-name="Path 518" d="M44.8,161.6a1.6,1.6,0,1,0-1.6-1.6A1.629,1.629,0,0,0,44.8,161.6Z" transform="translate(-12.931 17.801)" fill="#747474"/>
          <path id="Path_519" data-name="Path 519" d="M59.2,161.6a1.6,1.6,0,1,0-1.6-1.6A1.629,1.629,0,0,0,59.2,161.6Z" transform="translate(-9.612 17.801)" fill="#747474"/>
          <path id="Path_520" data-name="Path 520" d="M73.6,161.6A1.6,1.6,0,1,0,72,160,1.629,1.629,0,0,0,73.6,161.6Z" transform="translate(-6.292 17.801)" fill="#747474"/>
          <circle id="Ellipse_34" data-name="Ellipse 34" cx="1.6" cy="1.6" r="1.6" transform="translate(83.427 176.201)" fill="#747474"/>
          <path id="Path_521" data-name="Path 521" d="M102.4,161.6a1.6,1.6,0,1,0-1.6-1.6A1.629,1.629,0,0,0,102.4,161.6Z" transform="translate(0.346 17.801)" fill="#747474"/>
          <path id="Path_522" data-name="Path 522" d="M116.8,161.6a1.6,1.6,0,1,0-1.6-1.6A1.629,1.629,0,0,0,116.8,161.6Z" transform="translate(3.666 17.801)" fill="#747474"/>
          <path id="Path_523" data-name="Path 523" d="M131.2,161.6a1.6,1.6,0,1,0-1.6-1.6A1.629,1.629,0,0,0,131.2,161.6Z" transform="translate(6.985 17.801)" fill="#747474"/>
          <path id="Path_524" data-name="Path 524" d="M145.6,161.6A1.6,1.6,0,1,0,144,160,1.629,1.629,0,0,0,145.6,161.6Z" transform="translate(10.305 17.801)" fill="#747474"/>
          <circle id="Ellipse_35" data-name="Ellipse 35" cx="1.6" cy="1.6" r="1.6" transform="translate(172.024 176.201)" fill="#747474"/>
          <path id="Path_525" data-name="Path 525" d="M174.4,161.6a1.6,1.6,0,1,0-1.6-1.6A1.629,1.629,0,0,0,174.4,161.6Z" transform="translate(16.943 17.801)" fill="#747474"/>
          <path id="Path_526" data-name="Path 526" d="M188.8,161.6a1.6,1.6,0,1,0-1.6-1.6A1.629,1.629,0,0,0,188.8,161.6Z" transform="translate(20.263 17.801)" fill="#747474"/>
          <path id="Path_527" data-name="Path 527" d="M203.2,161.6a1.6,1.6,0,1,0-1.6-1.6A1.629,1.629,0,0,0,203.2,161.6Z" transform="translate(23.582 17.801)" fill="#747474"/>
          <path id="Path_528" data-name="Path 528" d="M217.6,161.6A1.6,1.6,0,1,0,216,160,1.629,1.629,0,0,0,217.6,161.6Z" transform="translate(26.902 17.801)" fill="#747474"/>
          <circle id="Ellipse_36" data-name="Ellipse 36" cx="1.6" cy="1.6" r="1.6" transform="translate(260.621 176.201)" fill="#747474"/>
          <path id="Path_529" data-name="Path 529" d="M246.4,161.6a1.6,1.6,0,1,0-1.6-1.6A1.629,1.629,0,0,0,246.4,161.6Z" transform="translate(33.541 17.801)" fill="#747474"/>
          <path id="Path_530" data-name="Path 530" d="M260.8,161.6a1.6,1.6,0,1,0-1.6-1.6A1.629,1.629,0,0,0,260.8,161.6Z" transform="translate(36.86 17.801)" fill="#747474"/>
          <path id="Path_531" data-name="Path 531" d="M275.2,161.6a1.6,1.6,0,1,0-1.6-1.6A1.629,1.629,0,0,0,275.2,161.6Z" transform="translate(40.179 17.801)" fill="#747474"/>
          <path id="Path_532" data-name="Path 532" d="M289.6,161.6A1.6,1.6,0,1,0,288,160,1.629,1.629,0,0,0,289.6,161.6Z" transform="translate(43.499 17.801)" fill="#747474"/>
          <circle id="Ellipse_37" data-name="Ellipse 37" cx="1.6" cy="1.6" r="1.6" transform="translate(349.218 176.201)" fill="#747474"/>
          <path id="Path_533" data-name="Path 533" d="M8.8,176a1.6,1.6,0,1,0-1.6-1.6A1.629,1.629,0,0,0,8.8,176Z" transform="translate(-21.23 21.12)" fill="#747474"/>
          <path id="Path_534" data-name="Path 534" d="M23.2,176a1.6,1.6,0,1,0-1.6-1.6A1.629,1.629,0,0,0,23.2,176Z" transform="translate(-17.91 21.12)" fill="#747474"/>
          <path id="Path_535" data-name="Path 535" d="M37.6,176a1.6,1.6,0,1,0-1.6-1.6A1.629,1.629,0,0,0,37.6,176Z" transform="translate(-14.591 21.12)" fill="#747474"/>
          <path id="Path_536" data-name="Path 536" d="M52,176a1.6,1.6,0,1,0-1.6-1.6A1.629,1.629,0,0,0,52,176Z" transform="translate(-11.272 21.12)" fill="#747474"/>
          <path id="Path_537" data-name="Path 537" d="M66.4,176a1.6,1.6,0,1,0-1.6-1.6A1.629,1.629,0,0,0,66.4,176Z" transform="translate(-7.952 21.12)" fill="#747474"/>
          <path id="Path_538" data-name="Path 538" d="M80.8,176a1.6,1.6,0,1,0-1.6-1.6A1.629,1.629,0,0,0,80.8,176Z" transform="translate(-4.633 21.12)" fill="#747474"/>
          <path id="Path_539" data-name="Path 539" d="M95.2,176a1.6,1.6,0,1,0-1.6-1.6A1.629,1.629,0,0,0,95.2,176Z" transform="translate(-1.313 21.12)" fill="#747474"/>
          <path id="Path_540" data-name="Path 540" d="M109.6,176a1.6,1.6,0,1,0-1.6-1.6A1.629,1.629,0,0,0,109.6,176Z" transform="translate(2.006 21.12)" fill="#747474"/>
          <path id="Path_541" data-name="Path 541" d="M124,176a1.6,1.6,0,1,0-1.6-1.6A1.629,1.629,0,0,0,124,176Z" transform="translate(5.326 21.12)" fill="#747474"/>
          <path id="Path_542" data-name="Path 542" d="M138.4,176a1.6,1.6,0,1,0-1.6-1.6A1.629,1.629,0,0,0,138.4,176Z" transform="translate(8.645 21.12)" fill="#747474"/>
          <path id="Path_543" data-name="Path 543" d="M152.8,176a1.6,1.6,0,1,0-1.6-1.6A1.629,1.629,0,0,0,152.8,176Z" transform="translate(11.964 21.12)" fill="#747474"/>
          <path id="Path_544" data-name="Path 544" d="M167.2,176a1.6,1.6,0,1,0-1.6-1.6A1.629,1.629,0,0,0,167.2,176Z" transform="translate(15.284 21.12)" fill="#747474"/>
          <path id="Path_545" data-name="Path 545" d="M181.6,176a1.6,1.6,0,1,0-1.6-1.6A1.629,1.629,0,0,0,181.6,176Z" transform="translate(18.603 21.12)" fill="#747474"/>
          <path id="Path_546" data-name="Path 546" d="M196,176a1.6,1.6,0,1,0-1.6-1.6A1.629,1.629,0,0,0,196,176Z" transform="translate(21.923 21.12)" fill="#747474"/>
          <path id="Path_547" data-name="Path 547" d="M210.4,176a1.6,1.6,0,1,0-1.6-1.6A1.629,1.629,0,0,0,210.4,176Z" transform="translate(25.242 21.12)" fill="#747474"/>
          <path id="Path_548" data-name="Path 548" d="M224.8,176a1.6,1.6,0,1,0-1.6-1.6A1.629,1.629,0,0,0,224.8,176Z" transform="translate(28.561 21.12)" fill="#747474"/>
          <path id="Path_549" data-name="Path 549" d="M239.2,176a1.6,1.6,0,1,0-1.6-1.6A1.629,1.629,0,0,0,239.2,176Z" transform="translate(31.881 21.12)" fill="#747474"/>
          <path id="Path_550" data-name="Path 550" d="M253.6,176a1.6,1.6,0,1,0-1.6-1.6A1.629,1.629,0,0,0,253.6,176Z" transform="translate(35.2 21.12)" fill="#747474"/>
          <path id="Path_551" data-name="Path 551" d="M268,176a1.6,1.6,0,1,0-1.6-1.6A1.629,1.629,0,0,0,268,176Z" transform="translate(38.52 21.12)" fill="#747474"/>
          <path id="Path_552" data-name="Path 552" d="M282.4,176a1.6,1.6,0,1,0-1.6-1.6A1.629,1.629,0,0,0,282.4,176Z" transform="translate(41.839 21.12)" fill="#747474"/>
          <path id="Path_553" data-name="Path 553" d="M296.8,176a1.6,1.6,0,1,0-1.6-1.6A1.629,1.629,0,0,0,296.8,176Z" transform="translate(45.159 21.12)" fill="#747474"/>
          <path id="Path_554" data-name="Path 554" d="M311.2,176a1.6,1.6,0,1,0-1.6-1.6A1.629,1.629,0,0,0,311.2,176Z" transform="translate(48.478 21.12)" fill="#747474"/>
          <path id="Path_555" data-name="Path 555" d="M1.6,190.4a1.6,1.6,0,1,0,0-3.2,1.6,1.6,0,1,0,0,3.2Z" transform="translate(-22.89 24.44)" fill="#747474"/>
          <path id="Path_556" data-name="Path 556" d="M16,190.4a1.6,1.6,0,1,0-1.6-1.6A1.629,1.629,0,0,0,16,190.4Z" transform="translate(-19.57 24.44)" fill="#747474"/>
          <path id="Path_557" data-name="Path 557" d="M30.4,190.4a1.6,1.6,0,1,0-1.6-1.6A1.629,1.629,0,0,0,30.4,190.4Z" transform="translate(-16.251 24.44)" fill="#747474"/>
          <path id="Path_558" data-name="Path 558" d="M44.8,190.4a1.6,1.6,0,1,0-1.6-1.6A1.629,1.629,0,0,0,44.8,190.4Z" transform="translate(-12.931 24.44)" fill="#747474"/>
          <path id="Path_559" data-name="Path 559" d="M59.2,190.4a1.6,1.6,0,1,0-1.6-1.6A1.629,1.629,0,0,0,59.2,190.4Z" transform="translate(-9.612 24.44)" fill="#747474"/>
          <path id="Path_560" data-name="Path 560" d="M73.6,190.4a1.6,1.6,0,1,0-1.6-1.6A1.629,1.629,0,0,0,73.6,190.4Z" transform="translate(-6.292 24.44)" fill="#747474"/>
          <path id="Path_561" data-name="Path 561" d="M88,190.4a1.6,1.6,0,1,0-1.6-1.6A1.629,1.629,0,0,0,88,190.4Z" transform="translate(-2.973 24.44)" fill="#747474"/>
          <path id="Path_562" data-name="Path 562" d="M102.4,190.4a1.6,1.6,0,1,0-1.6-1.6A1.629,1.629,0,0,0,102.4,190.4Z" transform="translate(0.346 24.44)" fill="#747474"/>
          <path id="Path_563" data-name="Path 563" d="M116.8,190.4a1.6,1.6,0,1,0-1.6-1.6A1.629,1.629,0,0,0,116.8,190.4Z" transform="translate(3.666 24.44)" fill="#747474"/>
          <path id="Path_564" data-name="Path 564" d="M131.2,190.4a1.6,1.6,0,1,0-1.6-1.6A1.629,1.629,0,0,0,131.2,190.4Z" transform="translate(6.985 24.44)" fill="#747474"/>
          <path id="Path_565" data-name="Path 565" d="M145.6,190.4a1.6,1.6,0,1,0-1.6-1.6A1.629,1.629,0,0,0,145.6,190.4Z" transform="translate(10.305 24.44)" fill="#747474"/>
          <path id="Path_566" data-name="Path 566" d="M160,190.4a1.6,1.6,0,1,0-1.6-1.6A1.629,1.629,0,0,0,160,190.4Z" transform="translate(13.624 24.44)" fill="#747474"/>
          <path id="Path_567" data-name="Path 567" d="M174.4,190.4a1.6,1.6,0,1,0-1.6-1.6A1.629,1.629,0,0,0,174.4,190.4Z" transform="translate(16.943 24.44)" fill="#747474"/>
          <path id="Path_568" data-name="Path 568" d="M188.8,190.4a1.6,1.6,0,1,0-1.6-1.6A1.629,1.629,0,0,0,188.8,190.4Z" transform="translate(20.263 24.44)" fill="#747474"/>
          <path id="Path_569" data-name="Path 569" d="M203.2,190.4a1.6,1.6,0,1,0-1.6-1.6A1.629,1.629,0,0,0,203.2,190.4Z" transform="translate(23.582 24.44)" fill="#747474"/>
          <path id="Path_570" data-name="Path 570" d="M217.6,190.4a1.6,1.6,0,1,0-1.6-1.6A1.629,1.629,0,0,0,217.6,190.4Z" transform="translate(26.902 24.44)" fill="#747474"/>
          <path id="Path_571" data-name="Path 571" d="M232,190.4a1.6,1.6,0,1,0-1.6-1.6A1.629,1.629,0,0,0,232,190.4Z" transform="translate(30.221 24.44)" fill="#747474"/>
          <path id="Path_572" data-name="Path 572" d="M246.4,190.4a1.6,1.6,0,1,0-1.6-1.6A1.629,1.629,0,0,0,246.4,190.4Z" transform="translate(33.541 24.44)" fill="#747474"/>
          <path id="Path_573" data-name="Path 573" d="M260.8,190.4a1.6,1.6,0,1,0-1.6-1.6A1.629,1.629,0,0,0,260.8,190.4Z" transform="translate(36.86 24.44)" fill="#747474"/>
          <path id="Path_574" data-name="Path 574" d="M275.2,190.4a1.6,1.6,0,1,0-1.6-1.6A1.629,1.629,0,0,0,275.2,190.4Z" transform="translate(40.179 24.44)" fill="#747474"/>
          <path id="Path_575" data-name="Path 575" d="M289.6,190.4a1.6,1.6,0,1,0-1.6-1.6A1.629,1.629,0,0,0,289.6,190.4Z" transform="translate(43.499 24.44)" fill="#747474"/>
          <path id="Path_576" data-name="Path 576" d="M304,190.4a1.6,1.6,0,1,0-1.6-1.6A1.629,1.629,0,0,0,304,190.4Z" transform="translate(46.818 24.44)" fill="#747474"/>
          <path id="Path_577" data-name="Path 577" d="M8.8,204.8a1.6,1.6,0,1,0-1.6-1.6A1.629,1.629,0,0,0,8.8,204.8Z" transform="translate(-21.23 27.759)" fill="#747474"/>
          <path id="Path_578" data-name="Path 578" d="M23.2,204.8a1.6,1.6,0,1,0-1.6-1.6A1.629,1.629,0,0,0,23.2,204.8Z" transform="translate(-17.91 27.759)" fill="#747474"/>
          <path id="Path_579" data-name="Path 579" d="M37.6,204.8a1.6,1.6,0,1,0-1.6-1.6A1.629,1.629,0,0,0,37.6,204.8Z" transform="translate(-14.591 27.759)" fill="#747474"/>
          <path id="Path_580" data-name="Path 580" d="M52,204.8a1.6,1.6,0,1,0-1.6-1.6A1.629,1.629,0,0,0,52,204.8Z" transform="translate(-11.272 27.759)" fill="#747474"/>
          <path id="Path_581" data-name="Path 581" d="M66.4,204.8a1.6,1.6,0,1,0-1.6-1.6A1.629,1.629,0,0,0,66.4,204.8Z" transform="translate(-7.952 27.759)" fill="#747474"/>
          <path id="Path_582" data-name="Path 582" d="M80.8,204.8a1.6,1.6,0,1,0-1.6-1.6A1.629,1.629,0,0,0,80.8,204.8Z" transform="translate(-4.633 27.759)" fill="#747474"/>
          <path id="Path_583" data-name="Path 583" d="M95.2,204.8a1.6,1.6,0,1,0-1.6-1.6A1.629,1.629,0,0,0,95.2,204.8Z" transform="translate(-1.313 27.759)" fill="#747474"/>
          <path id="Path_584" data-name="Path 584" d="M109.6,204.8a1.6,1.6,0,1,0-1.6-1.6A1.629,1.629,0,0,0,109.6,204.8Z" transform="translate(2.006 27.759)" fill="#747474"/>
          <path id="Path_585" data-name="Path 585" d="M124,204.8a1.6,1.6,0,1,0-1.6-1.6A1.629,1.629,0,0,0,124,204.8Z" transform="translate(5.326 27.759)" fill="#747474"/>
          <path id="Path_586" data-name="Path 586" d="M138.4,204.8a1.6,1.6,0,1,0-1.6-1.6A1.629,1.629,0,0,0,138.4,204.8Z" transform="translate(8.645 27.759)" fill="#747474"/>
          <path id="Path_587" data-name="Path 587" d="M152.8,204.8a1.6,1.6,0,1,0-1.6-1.6A1.629,1.629,0,0,0,152.8,204.8Z" transform="translate(11.964 27.759)" fill="#747474"/>
          <path id="Path_588" data-name="Path 588" d="M167.2,204.8a1.6,1.6,0,1,0-1.6-1.6A1.629,1.629,0,0,0,167.2,204.8Z" transform="translate(15.284 27.759)" fill="#747474"/>
          <path id="Path_589" data-name="Path 589" d="M181.6,204.8a1.6,1.6,0,1,0-1.6-1.6A1.629,1.629,0,0,0,181.6,204.8Z" transform="translate(18.603 27.759)" fill="#747474"/>
          <path id="Path_590" data-name="Path 590" d="M196,204.8a1.6,1.6,0,1,0-1.6-1.6A1.629,1.629,0,0,0,196,204.8Z" transform="translate(21.923 27.759)" fill="#747474"/>
          <path id="Path_591" data-name="Path 591" d="M210.4,204.8a1.6,1.6,0,1,0-1.6-1.6A1.629,1.629,0,0,0,210.4,204.8Z" transform="translate(25.242 27.759)" fill="#747474"/>
          <path id="Path_592" data-name="Path 592" d="M224.8,204.8a1.6,1.6,0,1,0-1.6-1.6A1.629,1.629,0,0,0,224.8,204.8Z" transform="translate(28.561 27.759)" fill="#747474"/>
          <path id="Path_593" data-name="Path 593" d="M239.2,204.8a1.6,1.6,0,1,0-1.6-1.6A1.629,1.629,0,0,0,239.2,204.8Z" transform="translate(31.881 27.759)" fill="#747474"/>
          <path id="Path_594" data-name="Path 594" d="M253.6,204.8a1.6,1.6,0,1,0-1.6-1.6A1.629,1.629,0,0,0,253.6,204.8Z" transform="translate(35.2 27.759)" fill="#747474"/>
          <path id="Path_595" data-name="Path 595" d="M268,204.8a1.6,1.6,0,1,0-1.6-1.6A1.629,1.629,0,0,0,268,204.8Z" transform="translate(38.52 27.759)" fill="#747474"/>
          <path id="Path_596" data-name="Path 596" d="M282.4,204.8a1.6,1.6,0,1,0-1.6-1.6A1.629,1.629,0,0,0,282.4,204.8Z" transform="translate(41.839 27.759)" fill="#747474"/>
          <path id="Path_597" data-name="Path 597" d="M296.8,204.8a1.6,1.6,0,1,0-1.6-1.6A1.629,1.629,0,0,0,296.8,204.8Z" transform="translate(45.159 27.759)" fill="#747474"/>
          <path id="Path_598" data-name="Path 598" d="M311.2,204.8a1.6,1.6,0,1,0-1.6-1.6A1.629,1.629,0,0,0,311.2,204.8Z" transform="translate(48.478 27.759)" fill="#747474"/>
          <path id="Path_599" data-name="Path 599" d="M1.6,219.2a1.6,1.6,0,1,0,0-3.2,1.6,1.6,0,1,0,0,3.2Z" transform="translate(-22.89 31.079)" fill="#747474"/>
          <circle id="Ellipse_38" data-name="Ellipse 38" cx="1.6" cy="1.6" r="1.6" transform="translate(-5.17 247.079)" fill="#747474"/>
          <path id="Path_600" data-name="Path 600" d="M30.4,219.2a1.6,1.6,0,1,0-1.6-1.6A1.629,1.629,0,0,0,30.4,219.2Z" transform="translate(-16.251 31.079)" fill="#747474"/>
          <path id="Path_601" data-name="Path 601" d="M44.8,219.2a1.6,1.6,0,1,0-1.6-1.6A1.629,1.629,0,0,0,44.8,219.2Z" transform="translate(-12.931 31.079)" fill="#747474"/>
          <path id="Path_602" data-name="Path 602" d="M59.2,219.2a1.6,1.6,0,1,0-1.6-1.6A1.629,1.629,0,0,0,59.2,219.2Z" transform="translate(-9.612 31.079)" fill="#747474"/>
          <path id="Path_603" data-name="Path 603" d="M73.6,219.2a1.6,1.6,0,1,0-1.6-1.6A1.629,1.629,0,0,0,73.6,219.2Z" transform="translate(-6.292 31.079)" fill="#747474"/>
          <circle id="Ellipse_39" data-name="Ellipse 39" cx="1.6" cy="1.6" r="1.6" transform="translate(83.427 247.079)" fill="#747474"/>
          <path id="Path_604" data-name="Path 604" d="M102.4,219.2a1.6,1.6,0,1,0-1.6-1.6A1.629,1.629,0,0,0,102.4,219.2Z" transform="translate(0.346 31.079)" fill="#747474"/>
          <path id="Path_605" data-name="Path 605" d="M116.8,219.2a1.6,1.6,0,1,0-1.6-1.6A1.629,1.629,0,0,0,116.8,219.2Z" transform="translate(3.666 31.079)" fill="#747474"/>
          <path id="Path_606" data-name="Path 606" d="M131.2,219.2a1.6,1.6,0,1,0-1.6-1.6A1.629,1.629,0,0,0,131.2,219.2Z" transform="translate(6.985 31.079)" fill="#747474"/>
          <path id="Path_607" data-name="Path 607" d="M145.6,219.2a1.6,1.6,0,1,0-1.6-1.6A1.629,1.629,0,0,0,145.6,219.2Z" transform="translate(10.305 31.079)" fill="#747474"/>
          <circle id="Ellipse_40" data-name="Ellipse 40" cx="1.6" cy="1.6" r="1.6" transform="translate(172.024 247.079)" fill="#747474"/>
          <path id="Path_608" data-name="Path 608" d="M174.4,219.2a1.6,1.6,0,1,0-1.6-1.6A1.629,1.629,0,0,0,174.4,219.2Z" transform="translate(16.943 31.079)" fill="#747474"/>
          <path id="Path_609" data-name="Path 609" d="M188.8,219.2a1.6,1.6,0,1,0-1.6-1.6A1.629,1.629,0,0,0,188.8,219.2Z" transform="translate(20.263 31.079)" fill="#747474"/>
          <path id="Path_610" data-name="Path 610" d="M203.2,219.2a1.6,1.6,0,1,0-1.6-1.6A1.629,1.629,0,0,0,203.2,219.2Z" transform="translate(23.582 31.079)" fill="#747474"/>
          <path id="Path_611" data-name="Path 611" d="M217.6,219.2a1.6,1.6,0,1,0-1.6-1.6A1.629,1.629,0,0,0,217.6,219.2Z" transform="translate(26.902 31.079)" fill="#747474"/>
          <circle id="Ellipse_41" data-name="Ellipse 41" cx="1.6" cy="1.6" r="1.6" transform="translate(260.621 247.079)" fill="#747474"/>
          <path id="Path_612" data-name="Path 612" d="M246.4,219.2a1.6,1.6,0,1,0-1.6-1.6A1.629,1.629,0,0,0,246.4,219.2Z" transform="translate(33.541 31.079)" fill="#747474"/>
          <path id="Path_613" data-name="Path 613" d="M260.8,219.2a1.6,1.6,0,1,0-1.6-1.6A1.629,1.629,0,0,0,260.8,219.2Z" transform="translate(36.86 31.079)" fill="#747474"/>
          <path id="Path_614" data-name="Path 614" d="M275.2,219.2a1.6,1.6,0,1,0-1.6-1.6A1.629,1.629,0,0,0,275.2,219.2Z" transform="translate(40.179 31.079)" fill="#747474"/>
          <path id="Path_615" data-name="Path 615" d="M289.6,219.2a1.6,1.6,0,1,0-1.6-1.6A1.629,1.629,0,0,0,289.6,219.2Z" transform="translate(43.499 31.079)" fill="#747474"/>
          <circle id="Ellipse_42" data-name="Ellipse 42" cx="1.6" cy="1.6" r="1.6" transform="translate(349.218 247.079)" fill="#747474"/>
          <path id="Path_616" data-name="Path 616" d="M8.8,233.6A1.6,1.6,0,1,0,7.2,232,1.629,1.629,0,0,0,8.8,233.6Z" transform="translate(-21.23 34.398)" fill="#747474"/>
          <path id="Path_617" data-name="Path 617" d="M23.2,233.6a1.6,1.6,0,1,0-1.6-1.6A1.629,1.629,0,0,0,23.2,233.6Z" transform="translate(-17.91 34.398)" fill="#747474"/>
          <path id="Path_618" data-name="Path 618" d="M37.6,233.6A1.6,1.6,0,1,0,36,232,1.629,1.629,0,0,0,37.6,233.6Z" transform="translate(-14.591 34.398)" fill="#747474"/>
          <circle id="Ellipse_43" data-name="Ellipse 43" cx="1.6" cy="1.6" r="1.6" transform="translate(39.128 264.798)" fill="#747474"/>
          <path id="Path_619" data-name="Path 619" d="M66.4,233.6a1.6,1.6,0,1,0-1.6-1.6A1.629,1.629,0,0,0,66.4,233.6Z" transform="translate(-7.952 34.398)" fill="#747474"/>
          <path id="Path_620" data-name="Path 620" d="M80.8,233.6a1.6,1.6,0,1,0-1.6-1.6A1.629,1.629,0,0,0,80.8,233.6Z" transform="translate(-4.633 34.398)" fill="#747474"/>
          <path id="Path_621" data-name="Path 621" d="M95.2,233.6a1.6,1.6,0,1,0-1.6-1.6A1.629,1.629,0,0,0,95.2,233.6Z" transform="translate(-1.313 34.398)" fill="#747474"/>
          <path id="Path_622" data-name="Path 622" d="M109.6,233.6A1.6,1.6,0,1,0,108,232,1.629,1.629,0,0,0,109.6,233.6Z" transform="translate(2.006 34.398)" fill="#747474"/>
          <circle id="Ellipse_44" data-name="Ellipse 44" cx="1.6" cy="1.6" r="1.6" transform="translate(127.726 264.798)" fill="#747474"/>
          <path id="Path_623" data-name="Path 623" d="M138.4,233.6a1.6,1.6,0,1,0-1.6-1.6A1.629,1.629,0,0,0,138.4,233.6Z" transform="translate(8.645 34.398)" fill="#747474"/>
          <path id="Path_624" data-name="Path 624" d="M152.8,233.6a1.6,1.6,0,1,0-1.6-1.6A1.629,1.629,0,0,0,152.8,233.6Z" transform="translate(11.964 34.398)" fill="#747474"/>
          <path id="Path_625" data-name="Path 625" d="M167.2,233.6a1.6,1.6,0,1,0-1.6-1.6A1.629,1.629,0,0,0,167.2,233.6Z" transform="translate(15.284 34.398)" fill="#747474"/>
          <path id="Path_626" data-name="Path 626" d="M181.6,233.6A1.6,1.6,0,1,0,180,232,1.629,1.629,0,0,0,181.6,233.6Z" transform="translate(18.603 34.398)" fill="#747474"/>
          <circle id="Ellipse_45" data-name="Ellipse 45" cx="1.6" cy="1.6" r="1.6" transform="translate(216.323 264.798)" fill="#747474"/>
          <path id="Path_627" data-name="Path 627" d="M210.4,233.6a1.6,1.6,0,1,0-1.6-1.6A1.629,1.629,0,0,0,210.4,233.6Z" transform="translate(25.242 34.398)" fill="#747474"/>
          <path id="Path_628" data-name="Path 628" d="M224.8,233.6a1.6,1.6,0,1,0-1.6-1.6A1.629,1.629,0,0,0,224.8,233.6Z" transform="translate(28.561 34.398)" fill="#747474"/>
          <path id="Path_629" data-name="Path 629" d="M239.2,233.6a1.6,1.6,0,1,0-1.6-1.6A1.629,1.629,0,0,0,239.2,233.6Z" transform="translate(31.881 34.398)" fill="#747474"/>
          <path id="Path_630" data-name="Path 630" d="M253.6,233.6A1.6,1.6,0,1,0,252,232,1.629,1.629,0,0,0,253.6,233.6Z" transform="translate(35.2 34.398)" fill="#747474"/>
          <circle id="Ellipse_46" data-name="Ellipse 46" cx="1.6" cy="1.6" r="1.6" transform="translate(304.92 264.798)" fill="#747474"/>
          <path id="Path_631" data-name="Path 631" d="M282.4,233.6a1.6,1.6,0,1,0-1.6-1.6A1.629,1.629,0,0,0,282.4,233.6Z" transform="translate(41.839 34.398)" fill="#747474"/>
          <path id="Path_632" data-name="Path 632" d="M296.8,233.6a1.6,1.6,0,1,0-1.6-1.6A1.629,1.629,0,0,0,296.8,233.6Z" transform="translate(45.159 34.398)" fill="#747474"/>
          <path id="Path_633" data-name="Path 633" d="M311.2,233.6a1.6,1.6,0,1,0-1.6-1.6A1.629,1.629,0,0,0,311.2,233.6Z" transform="translate(48.478 34.398)" fill="#747474"/>
          <path id="Path_634" data-name="Path 634" d="M1.6,248a1.6,1.6,0,0,0,0-3.2,1.6,1.6,0,0,0,0,3.2Z" transform="translate(-22.89 37.718)" fill="#747474"/>
          <path id="Path_635" data-name="Path 635" d="M16,248a1.6,1.6,0,1,0-1.6-1.6A1.629,1.629,0,0,0,16,248Z" transform="translate(-19.57 37.718)" fill="#747474"/>
          <path id="Path_636" data-name="Path 636" d="M30.4,248a1.6,1.6,0,1,0-1.6-1.6A1.629,1.629,0,0,0,30.4,248Z" transform="translate(-16.251 37.718)" fill="#747474"/>
          <path id="Path_637" data-name="Path 637" d="M44.8,248a1.6,1.6,0,1,0-1.6-1.6A1.629,1.629,0,0,0,44.8,248Z" transform="translate(-12.931 37.718)" fill="#747474"/>
          <path id="Path_638" data-name="Path 638" d="M59.2,248a1.6,1.6,0,1,0-1.6-1.6A1.629,1.629,0,0,0,59.2,248Z" transform="translate(-9.612 37.718)" fill="#747474"/>
          <path id="Path_639" data-name="Path 639" d="M73.6,248a1.6,1.6,0,1,0-1.6-1.6A1.629,1.629,0,0,0,73.6,248Z" transform="translate(-6.292 37.718)" fill="#747474"/>
          <path id="Path_640" data-name="Path 640" d="M88,248a1.6,1.6,0,1,0-1.6-1.6A1.629,1.629,0,0,0,88,248Z" transform="translate(-2.973 37.718)" fill="#747474"/>
          <path id="Path_641" data-name="Path 641" d="M102.4,248a1.6,1.6,0,1,0-1.6-1.6A1.629,1.629,0,0,0,102.4,248Z" transform="translate(0.346 37.718)" fill="#747474"/>
          <path id="Path_642" data-name="Path 642" d="M116.8,248a1.6,1.6,0,1,0-1.6-1.6A1.629,1.629,0,0,0,116.8,248Z" transform="translate(3.666 37.718)" fill="#747474"/>
          <path id="Path_643" data-name="Path 643" d="M131.2,248a1.6,1.6,0,1,0-1.6-1.6A1.629,1.629,0,0,0,131.2,248Z" transform="translate(6.985 37.718)" fill="#747474"/>
          <path id="Path_644" data-name="Path 644" d="M145.6,248a1.6,1.6,0,1,0-1.6-1.6A1.629,1.629,0,0,0,145.6,248Z" transform="translate(10.305 37.718)" fill="#747474"/>
          <path id="Path_645" data-name="Path 645" d="M160,248a1.6,1.6,0,1,0-1.6-1.6A1.629,1.629,0,0,0,160,248Z" transform="translate(13.624 37.718)" fill="#747474"/>
          <path id="Path_646" data-name="Path 646" d="M174.4,248a1.6,1.6,0,1,0-1.6-1.6A1.629,1.629,0,0,0,174.4,248Z" transform="translate(16.943 37.718)" fill="#747474"/>
          <path id="Path_647" data-name="Path 647" d="M188.8,248a1.6,1.6,0,1,0-1.6-1.6A1.629,1.629,0,0,0,188.8,248Z" transform="translate(20.263 37.718)" fill="#747474"/>
          <path id="Path_648" data-name="Path 648" d="M203.2,248a1.6,1.6,0,1,0-1.6-1.6A1.629,1.629,0,0,0,203.2,248Z" transform="translate(23.582 37.718)" fill="#747474"/>
          <path id="Path_649" data-name="Path 649" d="M217.6,248a1.6,1.6,0,1,0-1.6-1.6A1.629,1.629,0,0,0,217.6,248Z" transform="translate(26.902 37.718)" fill="#747474"/>
          <path id="Path_650" data-name="Path 650" d="M232,248a1.6,1.6,0,1,0-1.6-1.6A1.629,1.629,0,0,0,232,248Z" transform="translate(30.221 37.718)" fill="#747474"/>
          <path id="Path_651" data-name="Path 651" d="M246.4,248a1.6,1.6,0,1,0-1.6-1.6A1.629,1.629,0,0,0,246.4,248Z" transform="translate(33.541 37.718)" fill="#747474"/>
          <path id="Path_652" data-name="Path 652" d="M260.8,248a1.6,1.6,0,1,0-1.6-1.6A1.629,1.629,0,0,0,260.8,248Z" transform="translate(36.86 37.718)" fill="#747474"/>
          <path id="Path_653" data-name="Path 653" d="M275.2,248a1.6,1.6,0,1,0-1.6-1.6A1.629,1.629,0,0,0,275.2,248Z" transform="translate(40.179 37.718)" fill="#747474"/>
          <path id="Path_654" data-name="Path 654" d="M289.6,248a1.6,1.6,0,1,0-1.6-1.6A1.629,1.629,0,0,0,289.6,248Z" transform="translate(43.499 37.718)" fill="#747474"/>
          <path id="Path_655" data-name="Path 655" d="M304,248a1.6,1.6,0,1,0-1.6-1.6A1.629,1.629,0,0,0,304,248Z" transform="translate(46.818 37.718)" fill="#747474"/>
          <path id="Path_656" data-name="Path 656" d="M8.8,262.4a1.6,1.6,0,1,0-1.6-1.6A1.629,1.629,0,0,0,8.8,262.4Z" transform="translate(-21.23 41.037)" fill="#747474"/>
          <path id="Path_657" data-name="Path 657" d="M23.2,262.4a1.6,1.6,0,1,0-1.6-1.6A1.629,1.629,0,0,0,23.2,262.4Z" transform="translate(-17.91 41.037)" fill="#747474"/>
          <path id="Path_658" data-name="Path 658" d="M37.6,262.4a1.6,1.6,0,1,0-1.6-1.6A1.629,1.629,0,0,0,37.6,262.4Z" transform="translate(-14.591 41.037)" fill="#747474"/>
          <path id="Path_659" data-name="Path 659" d="M52,262.4a1.6,1.6,0,1,0-1.6-1.6A1.629,1.629,0,0,0,52,262.4Z" transform="translate(-11.272 41.037)" fill="#747474"/>
          <path id="Path_660" data-name="Path 660" d="M66.4,262.4a1.6,1.6,0,1,0-1.6-1.6A1.629,1.629,0,0,0,66.4,262.4Z" transform="translate(-7.952 41.037)" fill="#747474"/>
          <path id="Path_661" data-name="Path 661" d="M80.8,262.4a1.6,1.6,0,1,0-1.6-1.6A1.629,1.629,0,0,0,80.8,262.4Z" transform="translate(-4.633 41.037)" fill="#747474"/>
          <path id="Path_662" data-name="Path 662" d="M95.2,262.4a1.6,1.6,0,1,0-1.6-1.6A1.629,1.629,0,0,0,95.2,262.4Z" transform="translate(-1.313 41.037)" fill="#747474"/>
          <path id="Path_663" data-name="Path 663" d="M109.6,262.4a1.6,1.6,0,1,0-1.6-1.6A1.629,1.629,0,0,0,109.6,262.4Z" transform="translate(2.006 41.037)" fill="#747474"/>
          <path id="Path_664" data-name="Path 664" d="M124,262.4a1.6,1.6,0,1,0-1.6-1.6A1.629,1.629,0,0,0,124,262.4Z" transform="translate(5.326 41.037)" fill="#747474"/>
          <path id="Path_665" data-name="Path 665" d="M138.4,262.4a1.6,1.6,0,1,0-1.6-1.6A1.629,1.629,0,0,0,138.4,262.4Z" transform="translate(8.645 41.037)" fill="#747474"/>
          <path id="Path_666" data-name="Path 666" d="M152.8,262.4a1.6,1.6,0,1,0-1.6-1.6A1.629,1.629,0,0,0,152.8,262.4Z" transform="translate(11.964 41.037)" fill="#747474"/>
          <path id="Path_667" data-name="Path 667" d="M167.2,262.4a1.6,1.6,0,1,0-1.6-1.6A1.629,1.629,0,0,0,167.2,262.4Z" transform="translate(15.284 41.037)" fill="#747474"/>
          <path id="Path_668" data-name="Path 668" d="M181.6,262.4a1.6,1.6,0,1,0-1.6-1.6A1.629,1.629,0,0,0,181.6,262.4Z" transform="translate(18.603 41.037)" fill="#747474"/>
          <path id="Path_669" data-name="Path 669" d="M196,262.4a1.6,1.6,0,1,0-1.6-1.6A1.629,1.629,0,0,0,196,262.4Z" transform="translate(21.923 41.037)" fill="#747474"/>
          <path id="Path_670" data-name="Path 670" d="M210.4,262.4a1.6,1.6,0,1,0-1.6-1.6A1.629,1.629,0,0,0,210.4,262.4Z" transform="translate(25.242 41.037)" fill="#747474"/>
          <path id="Path_671" data-name="Path 671" d="M224.8,262.4a1.6,1.6,0,1,0-1.6-1.6A1.629,1.629,0,0,0,224.8,262.4Z" transform="translate(28.561 41.037)" fill="#747474"/>
          <path id="Path_672" data-name="Path 672" d="M239.2,262.4a1.6,1.6,0,1,0-1.6-1.6A1.629,1.629,0,0,0,239.2,262.4Z" transform="translate(31.881 41.037)" fill="#747474"/>
          <path id="Path_673" data-name="Path 673" d="M253.6,262.4a1.6,1.6,0,1,0-1.6-1.6A1.629,1.629,0,0,0,253.6,262.4Z" transform="translate(35.2 41.037)" fill="#747474"/>
          <path id="Path_674" data-name="Path 674" d="M268,262.4a1.6,1.6,0,1,0-1.6-1.6A1.629,1.629,0,0,0,268,262.4Z" transform="translate(38.52 41.037)" fill="#747474"/>
          <path id="Path_675" data-name="Path 675" d="M282.4,262.4a1.6,1.6,0,1,0-1.6-1.6A1.629,1.629,0,0,0,282.4,262.4Z" transform="translate(41.839 41.037)" fill="#747474"/>
          <path id="Path_676" data-name="Path 676" d="M296.8,262.4a1.6,1.6,0,1,0-1.6-1.6A1.629,1.629,0,0,0,296.8,262.4Z" transform="translate(45.159 41.037)" fill="#747474"/>
          <path id="Path_677" data-name="Path 677" d="M311.2,262.4a1.6,1.6,0,1,0-1.6-1.6A1.629,1.629,0,0,0,311.2,262.4Z" transform="translate(48.478 41.037)" fill="#747474"/>
          <path id="Path_678" data-name="Path 678" d="M1.6,276.8a1.6,1.6,0,1,0,0-3.2,1.6,1.6,0,1,0,0,3.2Z" transform="translate(-22.89 44.356)" fill="#747474"/>
          <path id="Path_679" data-name="Path 679" d="M16,276.8a1.6,1.6,0,1,0-1.6-1.6A1.629,1.629,0,0,0,16,276.8Z" transform="translate(-19.57 44.356)" fill="#747474"/>
          <path id="Path_680" data-name="Path 680" d="M30.4,276.8a1.6,1.6,0,1,0-1.6-1.6A1.629,1.629,0,0,0,30.4,276.8Z" transform="translate(-16.251 44.356)" fill="#747474"/>
          <path id="Path_681" data-name="Path 681" d="M44.8,276.8a1.6,1.6,0,1,0-1.6-1.6A1.629,1.629,0,0,0,44.8,276.8Z" transform="translate(-12.931 44.356)" fill="#747474"/>
          <path id="Path_682" data-name="Path 682" d="M59.2,276.8a1.6,1.6,0,1,0-1.6-1.6A1.629,1.629,0,0,0,59.2,276.8Z" transform="translate(-9.612 44.356)" fill="#747474"/>
          <path id="Path_683" data-name="Path 683" d="M73.6,276.8a1.6,1.6,0,1,0-1.6-1.6A1.629,1.629,0,0,0,73.6,276.8Z" transform="translate(-6.292 44.356)" fill="#747474"/>
          <path id="Path_684" data-name="Path 684" d="M88,276.8a1.6,1.6,0,1,0-1.6-1.6A1.629,1.629,0,0,0,88,276.8Z" transform="translate(-2.973 44.356)" fill="#747474"/>
          <path id="Path_685" data-name="Path 685" d="M102.4,276.8a1.6,1.6,0,1,0-1.6-1.6A1.629,1.629,0,0,0,102.4,276.8Z" transform="translate(0.346 44.356)" fill="#747474"/>
          <path id="Path_686" data-name="Path 686" d="M116.8,276.8a1.6,1.6,0,1,0-1.6-1.6A1.629,1.629,0,0,0,116.8,276.8Z" transform="translate(3.666 44.356)" fill="#747474"/>
          <path id="Path_687" data-name="Path 687" d="M131.2,276.8a1.6,1.6,0,1,0-1.6-1.6A1.629,1.629,0,0,0,131.2,276.8Z" transform="translate(6.985 44.356)" fill="#747474"/>
          <path id="Path_688" data-name="Path 688" d="M145.6,276.8a1.6,1.6,0,1,0-1.6-1.6A1.629,1.629,0,0,0,145.6,276.8Z" transform="translate(10.305 44.356)" fill="#747474"/>
          <path id="Path_689" data-name="Path 689" d="M160,276.8a1.6,1.6,0,1,0-1.6-1.6A1.629,1.629,0,0,0,160,276.8Z" transform="translate(13.624 44.356)" fill="#747474"/>
          <path id="Path_690" data-name="Path 690" d="M174.4,276.8a1.6,1.6,0,1,0-1.6-1.6A1.629,1.629,0,0,0,174.4,276.8Z" transform="translate(16.943 44.356)" fill="#747474"/>
          <path id="Path_691" data-name="Path 691" d="M188.8,276.8a1.6,1.6,0,1,0-1.6-1.6A1.629,1.629,0,0,0,188.8,276.8Z" transform="translate(20.263 44.356)" fill="#747474"/>
          <path id="Path_692" data-name="Path 692" d="M203.2,276.8a1.6,1.6,0,1,0-1.6-1.6A1.629,1.629,0,0,0,203.2,276.8Z" transform="translate(23.582 44.356)" fill="#747474"/>
          <path id="Path_693" data-name="Path 693" d="M217.6,276.8a1.6,1.6,0,1,0-1.6-1.6A1.629,1.629,0,0,0,217.6,276.8Z" transform="translate(26.902 44.356)" fill="#747474"/>
          <path id="Path_694" data-name="Path 694" d="M232,276.8a1.6,1.6,0,1,0-1.6-1.6A1.629,1.629,0,0,0,232,276.8Z" transform="translate(30.221 44.356)" fill="#747474"/>
          <path id="Path_695" data-name="Path 695" d="M246.4,276.8a1.6,1.6,0,1,0-1.6-1.6A1.629,1.629,0,0,0,246.4,276.8Z" transform="translate(33.541 44.356)" fill="#747474"/>
          <path id="Path_696" data-name="Path 696" d="M260.8,276.8a1.6,1.6,0,1,0-1.6-1.6A1.629,1.629,0,0,0,260.8,276.8Z" transform="translate(36.86 44.356)" fill="#747474"/>
          <path id="Path_697" data-name="Path 697" d="M275.2,276.8a1.6,1.6,0,1,0-1.6-1.6A1.629,1.629,0,0,0,275.2,276.8Z" transform="translate(40.179 44.356)" fill="#747474"/>
          <path id="Path_698" data-name="Path 698" d="M289.6,276.8a1.6,1.6,0,1,0-1.6-1.6A1.629,1.629,0,0,0,289.6,276.8Z" transform="translate(43.499 44.356)" fill="#747474"/>
          <path id="Path_699" data-name="Path 699" d="M304,276.8a1.6,1.6,0,1,0-1.6-1.6A1.629,1.629,0,0,0,304,276.8Z" transform="translate(46.818 44.356)" fill="#747474"/>
          <path id="Path_700" data-name="Path 700" d="M8.8,291.2a1.6,1.6,0,1,0-1.6-1.6A1.629,1.629,0,0,0,8.8,291.2Z" transform="translate(-21.23 47.676)" fill="#747474"/>
          <path id="Path_701" data-name="Path 701" d="M23.2,291.2a1.6,1.6,0,1,0-1.6-1.6A1.629,1.629,0,0,0,23.2,291.2Z" transform="translate(-17.91 47.676)" fill="#747474"/>
          <path id="Path_702" data-name="Path 702" d="M37.6,291.2a1.6,1.6,0,1,0-1.6-1.6A1.629,1.629,0,0,0,37.6,291.2Z" transform="translate(-14.591 47.676)" fill="#747474"/>
          <circle id="Ellipse_47" data-name="Ellipse 47" cx="1.6" cy="1.6" r="1.6" transform="translate(39.128 335.676)" fill="#747474"/>
          <path id="Path_703" data-name="Path 703" d="M66.4,291.2a1.6,1.6,0,1,0-1.6-1.6A1.629,1.629,0,0,0,66.4,291.2Z" transform="translate(-7.952 47.676)" fill="#747474"/>
          <path id="Path_704" data-name="Path 704" d="M80.8,291.2a1.6,1.6,0,1,0-1.6-1.6A1.629,1.629,0,0,0,80.8,291.2Z" transform="translate(-4.633 47.676)" fill="#747474"/>
          <path id="Path_705" data-name="Path 705" d="M95.2,291.2a1.6,1.6,0,1,0-1.6-1.6A1.629,1.629,0,0,0,95.2,291.2Z" transform="translate(-1.313 47.676)" fill="#747474"/>
          <path id="Path_706" data-name="Path 706" d="M109.6,291.2a1.6,1.6,0,1,0-1.6-1.6A1.629,1.629,0,0,0,109.6,291.2Z" transform="translate(2.006 47.676)" fill="#747474"/>
          <circle id="Ellipse_48" data-name="Ellipse 48" cx="1.6" cy="1.6" r="1.6" transform="translate(127.726 335.676)" fill="#747474"/>
          <path id="Path_707" data-name="Path 707" d="M138.4,291.2a1.6,1.6,0,1,0-1.6-1.6A1.629,1.629,0,0,0,138.4,291.2Z" transform="translate(8.645 47.676)" fill="#747474"/>
          <path id="Path_708" data-name="Path 708" d="M152.8,291.2a1.6,1.6,0,1,0-1.6-1.6A1.629,1.629,0,0,0,152.8,291.2Z" transform="translate(11.964 47.676)" fill="#747474"/>
          <path id="Path_709" data-name="Path 709" d="M167.2,291.2a1.6,1.6,0,1,0-1.6-1.6A1.629,1.629,0,0,0,167.2,291.2Z" transform="translate(15.284 47.676)" fill="#747474"/>
          <path id="Path_710" data-name="Path 710" d="M181.6,291.2a1.6,1.6,0,1,0-1.6-1.6A1.629,1.629,0,0,0,181.6,291.2Z" transform="translate(18.603 47.676)" fill="#747474"/>
          <circle id="Ellipse_49" data-name="Ellipse 49" cx="1.6" cy="1.6" r="1.6" transform="translate(216.323 335.676)" fill="#747474"/>
          <path id="Path_711" data-name="Path 711" d="M210.4,291.2a1.6,1.6,0,1,0-1.6-1.6A1.629,1.629,0,0,0,210.4,291.2Z" transform="translate(25.242 47.676)" fill="#747474"/>
          <path id="Path_712" data-name="Path 712" d="M224.8,291.2a1.6,1.6,0,1,0-1.6-1.6A1.629,1.629,0,0,0,224.8,291.2Z" transform="translate(28.561 47.676)" fill="#747474"/>
          <path id="Path_713" data-name="Path 713" d="M239.2,291.2a1.6,1.6,0,1,0-1.6-1.6A1.629,1.629,0,0,0,239.2,291.2Z" transform="translate(31.881 47.676)" fill="#747474"/>
          <path id="Path_714" data-name="Path 714" d="M253.6,291.2a1.6,1.6,0,1,0-1.6-1.6A1.629,1.629,0,0,0,253.6,291.2Z" transform="translate(35.2 47.676)" fill="#747474"/>
          <circle id="Ellipse_50" data-name="Ellipse 50" cx="1.6" cy="1.6" r="1.6" transform="translate(304.92 335.676)" fill="#747474"/>
          <path id="Path_715" data-name="Path 715" d="M282.4,291.2a1.6,1.6,0,1,0-1.6-1.6A1.629,1.629,0,0,0,282.4,291.2Z" transform="translate(41.839 47.676)" fill="#747474"/>
          <path id="Path_716" data-name="Path 716" d="M296.8,291.2a1.6,1.6,0,1,0-1.6-1.6A1.629,1.629,0,0,0,296.8,291.2Z" transform="translate(45.159 47.676)" fill="#747474"/>
          <path id="Path_717" data-name="Path 717" d="M311.2,291.2a1.6,1.6,0,1,0-1.6-1.6A1.629,1.629,0,0,0,311.2,291.2Z" transform="translate(48.478 47.676)" fill="#747474"/>
          <path id="Path_718" data-name="Path 718" d="M1.6,305.6a1.6,1.6,0,0,0,0-3.2,1.6,1.6,0,0,0,0,3.2Z" transform="translate(-22.89 50.995)" fill="#747474"/>
          <circle id="Ellipse_51" data-name="Ellipse 51" cx="1.6" cy="1.6" r="1.6" transform="translate(-5.17 353.395)" fill="#747474"/>
          <path id="Path_719" data-name="Path 719" d="M30.4,305.6a1.6,1.6,0,1,0-1.6-1.6A1.629,1.629,0,0,0,30.4,305.6Z" transform="translate(-16.251 50.995)" fill="#747474"/>
          <path id="Path_720" data-name="Path 720" d="M44.8,305.6a1.6,1.6,0,1,0-1.6-1.6A1.629,1.629,0,0,0,44.8,305.6Z" transform="translate(-12.931 50.995)" fill="#747474"/>
          <path id="Path_721" data-name="Path 721" d="M59.2,305.6a1.6,1.6,0,1,0-1.6-1.6A1.629,1.629,0,0,0,59.2,305.6Z" transform="translate(-9.612 50.995)" fill="#747474"/>
          <path id="Path_722" data-name="Path 722" d="M73.6,305.6A1.6,1.6,0,1,0,72,304,1.629,1.629,0,0,0,73.6,305.6Z" transform="translate(-6.292 50.995)" fill="#747474"/>
          <circle id="Ellipse_52" data-name="Ellipse 52" cx="1.6" cy="1.6" r="1.6" transform="translate(83.427 353.395)" fill="#747474"/>
          <path id="Path_723" data-name="Path 723" d="M102.4,305.6a1.6,1.6,0,1,0-1.6-1.6A1.629,1.629,0,0,0,102.4,305.6Z" transform="translate(0.346 50.995)" fill="#747474"/>
          <path id="Path_724" data-name="Path 724" d="M116.8,305.6a1.6,1.6,0,1,0-1.6-1.6A1.629,1.629,0,0,0,116.8,305.6Z" transform="translate(3.666 50.995)" fill="#747474"/>
          <path id="Path_725" data-name="Path 725" d="M131.2,305.6a1.6,1.6,0,1,0-1.6-1.6A1.629,1.629,0,0,0,131.2,305.6Z" transform="translate(6.985 50.995)" fill="#747474"/>
          <path id="Path_726" data-name="Path 726" d="M145.6,305.6A1.6,1.6,0,1,0,144,304,1.629,1.629,0,0,0,145.6,305.6Z" transform="translate(10.305 50.995)" fill="#747474"/>
          <circle id="Ellipse_53" data-name="Ellipse 53" cx="1.6" cy="1.6" r="1.6" transform="translate(172.024 353.395)" fill="#747474"/>
          <path id="Path_727" data-name="Path 727" d="M174.4,305.6a1.6,1.6,0,1,0-1.6-1.6A1.629,1.629,0,0,0,174.4,305.6Z" transform="translate(16.943 50.995)" fill="#747474"/>
          <path id="Path_728" data-name="Path 728" d="M188.8,305.6a1.6,1.6,0,1,0-1.6-1.6A1.629,1.629,0,0,0,188.8,305.6Z" transform="translate(20.263 50.995)" fill="#747474"/>
          <path id="Path_729" data-name="Path 729" d="M203.2,305.6a1.6,1.6,0,1,0-1.6-1.6A1.629,1.629,0,0,0,203.2,305.6Z" transform="translate(23.582 50.995)" fill="#747474"/>
          <path id="Path_730" data-name="Path 730" d="M217.6,305.6A1.6,1.6,0,1,0,216,304,1.629,1.629,0,0,0,217.6,305.6Z" transform="translate(26.902 50.995)" fill="#747474"/>
          <circle id="Ellipse_54" data-name="Ellipse 54" cx="1.6" cy="1.6" r="1.6" transform="translate(260.621 353.395)" fill="#747474"/>
          <path id="Path_731" data-name="Path 731" d="M246.4,305.6a1.6,1.6,0,1,0-1.6-1.6A1.629,1.629,0,0,0,246.4,305.6Z" transform="translate(33.541 50.995)" fill="#747474"/>
          <path id="Path_732" data-name="Path 732" d="M260.8,305.6a1.6,1.6,0,1,0-1.6-1.6A1.629,1.629,0,0,0,260.8,305.6Z" transform="translate(36.86 50.995)" fill="#747474"/>
          <path id="Path_733" data-name="Path 733" d="M275.2,305.6a1.6,1.6,0,1,0-1.6-1.6A1.629,1.629,0,0,0,275.2,305.6Z" transform="translate(40.179 50.995)" fill="#747474"/>
          <path id="Path_734" data-name="Path 734" d="M289.6,305.6A1.6,1.6,0,1,0,288,304,1.629,1.629,0,0,0,289.6,305.6Z" transform="translate(43.499 50.995)" fill="#747474"/>
          <circle id="Ellipse_55" data-name="Ellipse 55" cx="1.6" cy="1.6" r="1.6" transform="translate(349.218 353.395)" fill="#747474"/>
        </g>
      </g>
    </g>
  </g>
</svg>
