<svg xmlns="http://www.w3.org/2000/svg" width="95.506" height="95.506" viewBox="0 0 95.506 95.506">
  <path id="Path_271" data-name="Path 271" d="M2,7.969A5.969,5.969,0,0,1,7.969,2H20.821a5.969,5.969,0,0,1,5.886,4.99l4.417,26.473A5.969,5.969,0,0,1,27.9,39.79L18.66,44.4A65.881,65.881,0,0,0,55.1,80.846l4.62-9.24a5.969,5.969,0,0,1,6.321-3.223L92.516,72.8a5.969,5.969,0,0,1,4.99,5.886V91.537a5.969,5.969,0,0,1-5.969,5.969H79.6A77.6,77.6,0,0,1,2,19.907Z" transform="translate(-2 -2)" fill="#4d4b4b"/>
</svg>
